<?xml version="1.0" encoding="UTF-8"?> <svg xmlns="http://www.w3.org/2000/svg" version="1.2" viewBox="0 0 915 215" width="915" height="215"><title>UPMC_23_ISMETT_Palermo_H_CMYK-ai</title><style> .s0 { fill: #221e1f } .s1 { fill: #52616f } .s2 { fill: #bf2e26 } .s3 { fill: #feca07 } .s4 { fill: #191917 } .s5 { fill: #fefefe } .s6 { fill: #541450 } .s7 { fill: #0e4168 } </style><g id="Layer 1"><g id="&lt;Group&gt;"><g id="&lt;Group&gt;"><path id="&lt;Compound Path&gt;" fill-rule="evenodd" class="s0" d="m637.6 2v45.5c-0.1 2-0.9 3.8-2.3 5.3-2.4 2.4-5.7 3.2-5.9 3.2h-0.1-12.5c-1 0-2.1 1-2.4 1.4l-1 1-1-1.1c-0.3-0.3-1.3-1.3-2.3-1.3h-12.5-0.1c-0.3-0.1-8-1.9-8.1-8.5v-46.8h48.2zm-46.9 0v45.5c0.1 5.7 7.1 7.2 7.1 7.2h12.3c1.8 0 3.3 1.8 3.3 1.8 0 0 1.6-1.8 3.4-1.8h12.3c0 0 3.1-0.7 5.2-2.8 1.1-1.1 1.9-2.5 2-4.4v-45.5z"></path></g></g><g id="&lt;Group&gt;"><path id="&lt;Compound Path&gt;" class="s1" d="m652.5 24.5v-14.3h1.9v14.3z"></path><path id="&lt;Compound Path&gt;" class="s1" d="m663.7 24.5v-6.8c0-1-0.4-1.7-1.5-1.7-1 0-2 0.7-2.9 1.6v6.9h-1.8v-9.9h1.5l0.2 1.4c0.9-0.8 2.1-1.6 3.5-1.6 1.9 0 2.9 1.1 2.9 2.9v7.2z"></path><path id="&lt;Compound Path&gt;" fill-rule="evenodd" class="s1" d="m676.9 24.6c-1 0-1.9-0.2-2.5-0.4v3.8l-1.8 0.3v-13.7h1.4l0.3 1.4c0.7-0.9 1.7-1.6 3.2-1.6 2.1 0 3.9 1.5 3.9 4.8 0 3.6-2.1 5.4-4.5 5.4zm0.3-8.6c-1.1 0-2 0.7-2.8 1.8v4.7c0.7 0.4 1.3 0.5 2.4 0.5 1.6 0 2.7-1.2 2.7-3.7 0-2.1-1-3.3-2.3-3.3z"></path><path id="&lt;Compound Path&gt;" fill-rule="evenodd" class="s1" d="m689.5 24.5l-0.2-1.4c-0.8 0.8-1.9 1.6-3.5 1.6-1.8 0-2.9-1.1-2.9-2.8 0-2.5 2.1-3.4 6.2-3.9v-0.4c0-1.2-0.7-1.7-1.9-1.7-1.2 0-2.3 0.4-3.4 0.9l-0.2-1.6c1.2-0.5 2.3-0.8 3.8-0.8 2.4 0 3.6 0.9 3.6 3.1v7zm-0.4-5.1c-3.6 0.4-4.4 1.4-4.4 2.4 0 0.8 0.5 1.3 1.5 1.3 1.1 0 2.1-0.5 2.9-1.4z"></path><path id="&lt;Compound Path&gt;" class="s1" d="m695.5 18.6v5.9h-1.9v-9.9h1.5l0.3 2c0.7-1.1 1.8-2.1 3.5-2.2l0.3 1.7c-1.7 0.1-3.1 1.2-3.7 2.5z"></path><path id="&lt;Compound Path&gt;" class="s1" d="m704.2 24.6c-1.8 0-2.9-0.6-2.9-2.6v-5.9h-1.5v-1.5h1.5v-3.3l1.8-0.3v3.6h2.1l0.3 1.5h-2.4v5.6c0 0.8 0.3 1.3 1.4 1.3q0.5 0 0.8-0.1l0.3 1.6c-0.3 0.1-0.8 0.1-1.4 0.1z"></path><path id="&lt;Compound Path&gt;" fill-rule="evenodd" class="s1" d="m711.6 24.7c-2.5 0-4.6-1.6-4.6-5.2 0-3.2 1.9-5.1 4.4-5.1 2.9 0 4.2 2.2 4.2 4.9v0.4h-6.7c0.1 2.3 1.1 3.4 2.9 3.4 1.4 0 2.4-0.6 3.5-1.4l0.3 1.6c-1.1 0.9-2.3 1.4-4 1.4zm-2.6-6.4h4.7c-0.2-1.6-0.9-2.5-2.3-2.5-1.2 0-2.1 0.9-2.4 2.5z"></path><path id="&lt;Compound Path&gt;" class="s1" d="m723.9 24.5v-6.8c0-1-0.4-1.7-1.5-1.7-0.9 0-1.9 0.7-2.8 1.6v6.9h-1.9v-9.9h1.5l0.2 1.4c1-0.8 2.1-1.6 3.5-1.6 1.9 0 2.9 1.1 2.9 2.9v7.2z"></path><path id="&lt;Compound Path&gt;" fill-rule="evenodd" class="s1" d="m734.4 24.5l-0.2-1.4c-0.8 0.8-1.8 1.6-3.5 1.6-1.7 0-2.9-1.1-2.9-2.8 0-2.5 2.2-3.4 6.3-3.9v-0.4c0-1.2-0.8-1.7-1.9-1.7-1.2 0-2.3 0.4-3.4 0.9l-0.3-1.6c1.2-0.5 2.3-0.8 3.9-0.8 2.4 0 3.5 0.9 3.5 3.1v7zm-0.3-5.1c-3.7 0.4-4.4 1.4-4.4 2.4 0 0.8 0.5 1.3 1.4 1.3 1.1 0 2.1-0.5 3-1.4z"></path><path id="&lt;Compound Path&gt;" class="s1" d="m740.4 18.6v5.9h-1.8v-9.9h1.4l0.4 2c0.7-1.1 1.8-2.1 3.4-2.2l0.3 1.7c-1.6 0.1-3 1.2-3.7 2.5z"></path><path id="&lt;Compound Path&gt;" class="s1" d="m746.9 12.6c-0.7 0-1.2-0.5-1.2-1.2 0-0.6 0.5-1.2 1.2-1.2 0.6 0 1.1 0.6 1.1 1.2 0 0.7-0.5 1.2-1.1 1.2zm-1 11.9v-9.9h1.9v9.9z"></path><path id="&lt;Compound Path&gt;" fill-rule="evenodd" class="s1" d="m756.6 24.5l-0.2-1.4c-0.8 0.8-1.9 1.6-3.5 1.6-1.8 0-2.9-1.1-2.9-2.8 0-2.5 2.1-3.4 6.2-3.9v-0.4c0-1.2-0.7-1.7-1.8-1.7-1.2 0-2.4 0.4-3.5 0.9l-0.2-1.6c1.2-0.5 2.3-0.8 3.8-0.8 2.4 0 3.6 0.9 3.6 3.1v7zm-0.4-5.1c-3.6 0.4-4.4 1.4-4.4 2.4 0 0.8 0.6 1.3 1.5 1.3 1.1 0 2.1-0.5 2.9-1.4z"></path><path id="&lt;Compound Path&gt;" class="s1" d="m764.1 24.6c-1.7 0-2.9-0.6-2.9-2.6v-5.9h-1.5v-1.5h1.5v-3.3l1.8-0.3v3.6h2.1l0.3 1.5h-2.4v5.6c0 0.8 0.3 1.3 1.4 1.3q0.5 0 0.8-0.1l0.3 1.6c-0.3 0.1-0.8 0.1-1.4 0.1z"></path><path id="&lt;Compound Path&gt;" fill-rule="evenodd" class="s1" d="m771.5 24.7c-2.6 0-4.6-1.9-4.6-5.2 0-3.2 2-5.1 4.6-5.1 2.6 0 4.6 1.9 4.6 5.1 0 3.3-2 5.2-4.6 5.2zm0-8.8c-1.8 0-2.7 1.6-2.7 3.6 0 2.1 0.9 3.6 2.7 3.6 1.8 0 2.7-1.5 2.7-3.6 0-2-0.9-3.6-2.7-3.6z"></path><path id="&lt;Compound Path&gt;" class="s1" d="m786.6 24.7c-2.6 0-4.6-1.9-4.6-5.2 0-3.3 2.1-5.1 4.7-5.1 1.5 0 2.5 0.4 3.2 0.9l-0.3 1.8c-0.8-0.7-1.7-1.1-2.9-1.1-1.7 0-2.8 1.2-2.8 3.5 0 2.4 1.2 3.6 2.9 3.6 1 0 1.9-0.3 2.9-1.1l0.3 1.7c-0.9 0.6-2 1-3.4 1z"></path><path id="&lt;Compound Path&gt;" fill-rule="evenodd" class="s1" d="m796 24.7c-2.6 0-4.5-1.9-4.5-5.2 0-3.2 1.9-5.1 4.5-5.1 2.7 0 4.6 1.9 4.6 5.1 0 3.3-1.9 5.2-4.6 5.2zm0-8.8c-1.8 0-2.7 1.6-2.7 3.6 0 2.1 1 3.6 2.7 3.6 1.8 0 2.7-1.5 2.7-3.6 0-2-0.9-3.6-2.7-3.6z"></path><path id="&lt;Compound Path&gt;" class="s1" d="m809 24.5v-6.8c0-1-0.5-1.7-1.6-1.7-0.9 0-1.9 0.7-2.8 1.6v6.9h-1.9v-9.9h1.5l0.2 1.4c1-0.8 2.1-1.6 3.5-1.6 1.9 0 2.9 1.1 2.9 2.9v7.2z"></path><path id="&lt;Compound Path&gt;" class="s1" d="m652.2 46.5v-14.7l1.9-0.3v15z"></path><path id="&lt;Compound Path&gt;" fill-rule="evenodd" class="s1" d="m662.9 46.5l-0.2-1.3c-0.8 0.8-1.9 1.5-3.5 1.5-1.8 0-2.9-1.1-2.9-2.8 0-2.4 2.1-3.4 6.2-3.8v-0.4c0-1.3-0.7-1.7-1.9-1.7-1.2 0-2.3 0.4-3.4 0.8l-0.2-1.6c1.2-0.4 2.3-0.8 3.8-0.8 2.4 0 3.6 1 3.6 3.2v6.9zm-0.4-5c-3.6 0.3-4.4 1.3-4.4 2.3 0 0.9 0.5 1.4 1.5 1.4 1.1 0 2.1-0.6 2.9-1.4z"></path><path id="&lt;Compound Path&gt;" fill-rule="evenodd" class="s1" d="m679.4 46.6l-4.4-6.1h-1.4v6h-2v-14.3h3.9c3 0 4.8 1.4 4.8 4.1 0 2.1-1.3 3.4-3.1 3.9l4.2 6zm-3.9-12.7h-1.9v4.9h1.7c1.9 0 3.1-0.9 3.1-2.5 0-1.5-1-2.4-2.9-2.4z"></path><path id="&lt;Compound Path&gt;" fill-rule="evenodd" class="s1" d="m687 46.7c-2.6 0-4.6-1.6-4.6-5.2 0-3.1 1.9-5.1 4.4-5.1 2.8 0 4.2 2.2 4.2 5v0.4h-6.7c0 2.3 1.1 3.3 2.8 3.3 1.5 0 2.5-0.5 3.6-1.4l0.3 1.7c-1.1 0.8-2.4 1.3-4 1.3zm-2.7-6.3h4.8c-0.2-1.6-0.9-2.5-2.4-2.5-1.1 0-2.1 0.8-2.4 2.5z"></path><path id="&lt;Compound Path&gt;" fill-rule="evenodd" class="s1" d="m696.6 50.3c-2.5 0-4.6-0.8-4.6-2.6 0-1 0.7-1.8 2.1-2.5-0.4-0.3-0.6-0.7-0.6-1.1 0-0.4 0.4-0.9 1-1.3-1.1-0.6-1.8-1.6-1.8-3 0-2.1 1.8-3.4 3.8-3.4 0.9 0 1.8 0.3 2.5 0.9l2.5-0.8 0.3 1.6-1.9 0.2q0.4 0.7 0.4 1.5c0 2.2-1.8 3.4-3.8 3.4q-0.4 0-0.7 0c-0.3 0.2-0.5 0.4-0.5 0.6 0 0.3 0.3 0.4 2.1 0.7l0.7 0.2c2.1 0.3 3.4 1 3.4 2.5 0 2.1-2.3 3.1-4.9 3.1zm-1.2-4.6c-1.1 0.6-1.6 1.2-1.6 1.9 0 0.8 1 1.3 2.9 1.3 1.9 0 3-0.6 3-1.5 0-0.6-0.4-1-1.8-1.2l-1.2-0.2c-0.6-0.1-0.9-0.2-1.3-0.3zm1.1-7.9c-1.3 0-2 0.9-2 2.1 0 1.1 0.7 2 2 2 1.2 0 2-0.9 2-2.1 0-1.2-0.8-2-2-2z"></path><path id="&lt;Compound Path&gt;" class="s1" d="m704.4 34.6c-0.6 0-1.2-0.5-1.2-1.1 0-0.7 0.6-1.2 1.2-1.2 0.7 0 1.2 0.5 1.2 1.2 0 0.6-0.5 1.1-1.2 1.1zm-0.9 11.9v-9.9h1.8v9.9z"></path><path id="&lt;Compound Path&gt;" fill-rule="evenodd" class="s1" d="m712.1 46.7c-2.6 0-4.5-1.9-4.5-5.1 0-3.3 1.9-5.2 4.5-5.2 2.7 0 4.6 1.9 4.6 5.2 0 3.2-1.9 5.1-4.6 5.1zm0-8.8c-1.7 0-2.6 1.6-2.6 3.7 0 2 0.9 3.6 2.6 3.6 1.9 0 2.8-1.6 2.8-3.6 0-2.1-1-3.7-2.8-3.7z"></path><path id="&lt;Compound Path&gt;" class="s1" d="m725.1 46.5v-6.7c0-1.1-0.4-1.7-1.5-1.7-1 0-2 0.6-2.9 1.6v6.8h-1.8v-9.9h1.4l0.3 1.4c0.9-0.8 2.1-1.6 3.5-1.6 1.8 0 2.8 1.1 2.8 2.9v7.2z"></path><path id="&lt;Compound Path&gt;" fill-rule="evenodd" class="s1" d="m733.6 46.7c-2.6 0-4.6-1.6-4.6-5.2 0-3.1 1.9-5.1 4.4-5.1 2.9 0 4.2 2.2 4.2 5v0.4h-6.7c0 2.3 1.1 3.3 2.8 3.3 1.5 0 2.5-0.5 3.6-1.4l0.3 1.7c-1.1 0.8-2.4 1.3-4 1.3zm-2.6-6.3h4.7c-0.2-1.6-0.9-2.5-2.3-2.5-1.2 0-2.2 0.8-2.4 2.5z"></path><path id="&lt;Compound Path&gt;" class="s1" d="m747.7 46.7c-1.5 0-2.9-0.4-4-1l0.3-2c1 0.7 2.3 1.3 3.8 1.3 1.4 0 2.5-0.8 2.5-2.2 0-1.3-0.6-1.9-2.7-2.8-2.7-1.3-3.7-2.1-3.7-4.2 0-2.3 1.7-3.8 4.3-3.8 1.4 0 2.4 0.4 3.3 0.8l-0.4 2c-0.7-0.6-1.8-1.1-3-1.1-1.6 0-2.3 0.9-2.3 2 0 1.1 0.5 1.6 2.7 2.6 2.8 1.2 3.7 2.2 3.7 4.3 0 2.5-1.8 4.1-4.5 4.1z"></path><path id="&lt;Compound Path&gt;" class="s1" d="m755.5 34.6c-0.6 0-1.1-0.5-1.1-1.1 0-0.7 0.5-1.2 1.1-1.2 0.7 0 1.2 0.5 1.2 1.2 0 0.6-0.5 1.1-1.2 1.1zm-0.9 11.9v-9.9h1.8v9.9z"></path><path id="&lt;Compound Path&gt;" class="s1" d="m763.3 46.7c-2.6 0-4.6-1.8-4.6-5.1 0-3.4 2.1-5.2 4.8-5.2 1.4 0 2.4 0.4 3.1 0.9l-0.3 1.8c-0.8-0.7-1.7-1.1-2.9-1.1-1.7 0-2.8 1.3-2.8 3.5 0 2.4 1.2 3.6 2.9 3.6 1 0 2-0.3 2.9-1.1l0.3 1.7c-0.9 0.7-2 1-3.4 1z"></path><path id="&lt;Compound Path&gt;" class="s1" d="m769.8 34.6c-0.6 0-1.2-0.5-1.2-1.1 0-0.7 0.6-1.2 1.2-1.2 0.7 0 1.2 0.5 1.2 1.2 0 0.6-0.5 1.1-1.2 1.1zm-0.9 11.9v-9.9h1.8v9.9z"></path><path id="&lt;Compound Path&gt;" class="s1" d="m773.7 46.5v-14.7l1.9-0.3v15z"></path><path id="&lt;Compound Path&gt;" class="s1" d="m779.5 34.6c-0.7 0-1.2-0.5-1.2-1.1 0-0.7 0.5-1.2 1.2-1.2 0.6 0 1.1 0.5 1.1 1.2 0 0.6-0.5 1.1-1.1 1.1zm-0.9 11.9v-9.9h1.8v9.9z"></path><path id="&lt;Compound Path&gt;" fill-rule="evenodd" class="s1" d="m789.2 46.5l-0.2-1.3c-0.8 0.8-1.9 1.5-3.5 1.5-1.7 0-2.9-1.1-2.9-2.8 0-2.4 2.1-3.4 6.3-3.8v-0.4c0-1.3-0.8-1.7-1.9-1.7-1.2 0-2.4 0.4-3.4 0.8l-0.3-1.6c1.2-0.4 2.3-0.8 3.8-0.8 2.5 0 3.6 1 3.6 3.2v6.9zm-0.3-5c-3.7 0.3-4.5 1.3-4.5 2.3 0 0.9 0.6 1.4 1.5 1.4 1.1 0 2.1-0.6 3-1.4z"></path><path id="&lt;Compound Path&gt;" class="s1" d="m799.6 46.5v-6.7c0-1.1-0.5-1.7-1.5-1.7-1 0-2 0.6-2.9 1.6v6.8h-1.8v-9.9h1.4l0.3 1.4c0.9-0.8 2.1-1.6 3.5-1.6 1.8 0 2.8 1.1 2.8 2.9v7.2z"></path><path id="&lt;Compound Path&gt;" fill-rule="evenodd" class="s1" d="m810.1 46.5l-0.2-1.3c-0.8 0.8-1.9 1.5-3.5 1.5-1.8 0-2.9-1.1-2.9-2.8 0-2.4 2.1-3.4 6.2-3.8v-0.4c0-1.3-0.7-1.7-1.9-1.7-1.2 0-2.3 0.4-3.4 0.8l-0.2-1.6c1.1-0.4 2.3-0.8 3.8-0.8 2.4 0 3.6 1 3.6 3.2v6.9zm-0.4-5c-3.6 0.3-4.4 1.3-4.4 2.3 0 0.9 0.5 1.4 1.5 1.4 1 0 2.1-0.6 2.9-1.4z"></path></g><g id="&lt;Group&gt;"><path id="&lt;Path&gt;" class="s2" d="m634.3 51.9c1.1-1.1 1.9-2.5 2-4.4v-45.5h-45.6z"></path><path id="&lt;Path&gt;" class="s3" d="m590.7 2v45.5c0.1 5.7 7.1 7.2 7.1 7.2h12.4c1.7 0 3.2 1.8 3.2 1.8 0 0 1.6-1.8 3.4-1.8h12.4c0 0 3-0.7 5.1-2.8z"></path><path id="&lt;Path&gt;" class="s4" d="m610.5 14.6c0.2-0.2 0.4-0.4 0.6-0.7 0-0.1 0.2-0.2 0.3-0.4 0.3-0.2 0.7-0.1 1-0.4 0 0.1 0 0.1 0 0.1 0.1 0 0.1 0 0.2-0.1 0.2 0 0.3 0.1 0.5 0.2 0.2 0 0.5 0.1 0.7 0.2q-0.1 0-0.1 0 0.2 0.3 0.4 0.3 0 0 0 0 0 0.1 0.1 0.1c0 0.1 0 0.2 0 0.2 0.2 0.1 0.3 0.4 0.2 0.6 0 0.1 0.2 0.1 0.2 0.2 0 0 0 0 0 0 0 0 0 0.1 0 0.1 0 0 0 0 0 0q0 0.1 0.1 0.1c-0.1 0.2 0 0.4 0 0.5 0 0.1 0.1 0.1 0.1 0.1-0.1 0.2 0.1 0.3 0 0.5 0 0.1 0.2 0.1 0.2 0.1-0.2 0.2 0.1 0.3-0.1 0.4 0.4 0.4 0.3 1 0.5 1.6 0 0 0.1 0 0.2 0-0.1 0.1-0.1 0.1-0.2 0.1 0 0.2 0.2 0.1 0.2 0.2 0 0-0.1 0-0.1 0.1 0.3 0.3 0 0.7 0.3 1.1 0.1 0.1-0.1 0.2 0 0.3 0 0.1 0.1 0.3 0.1 0.3-0.1 0.2 0.1 0.4-0.1 0.5 0.1 0 0 0.2 0.2 0.2-0.2 0.2-0.2 0.5-0.1 0.6 0.2 0.3 0.7 0.3 0.9 0.7 0.2-0.1 0.5 0.1 0.6-0.1 0.1-0.2 0.1-0.4 0-0.5 0-0.2-0.1 0-0.1 0 0-0.1 0.2-0.1 0.2-0.2-0.1-0.5 0-1 0-1.4 0-0.1-0.2-0.1-0.2-0.2 0-0.4-0.2-0.9-0.3-1.3 0.7 0.5 0.9 1.2 1.1 2 0 0-0.1 0.1-0.1 0.1 0 0.1 0.2 0.1 0.2 0.1 0.2-0.4 0-0.8 0.2-1.2 0 0-0.1-0.1-0.2-0.1 0-0.1-0.2 0-0.2-0.2 0.1-0.1-0.1-0.1-0.1-0.1-0.2-0.5-0.5-1-0.8-1.4-0.1-0.2-0.3-0.4-0.5-0.5 0-0.1 0-0.1 0-0.1 0 0 0 0 0-0.1 0.2 0.2 0.5 0.4 0.6 0.6 0.1 0.2 0.2 0.3 0.4 0.4 0.2 0 0.1-0.3 0.1-0.4 0.1-0.4-0.4-0.6-0.6-1-0.1-0.4-0.5-0.8-0.9-1.2q0.1 0 0.2-0.1 0.6 0.8 1.2 1.6c0.1-0.1 0.1-0.3 0.1-0.5-0.1-0.3-0.4-0.5-0.5-0.8-0.2-0.3-0.6-0.6-0.9-0.9 0 0 0.1-0.1 0.1 0 0.2 0 0.3 0.2 0.4 0.2 0.3 0.4 0.6 0.8 0.9 1.2 0.1 0 0.1-0.3 0.2-0.3 0-0.1-0.2-0.1-0.2-0.2-0.2-0.6-0.8-0.9-1-1.5 0.5 0.3 0.7 0.8 1.1 1.2 0.1 0.1 0.1 0.3 0.3 0.4 0 0.1 0.1 0 0.1 0-0.2-0.9-0.9-1.5-1.3-2.3 0.5 0.2 0.5 0.8 1 1-0.1 0.1 0.1 0.2 0 0.3 0 0.1 0.1 0.1 0.2 0.1-0.1 0.1 0.1 0.1 0 0.2 0.2 0.2 0.1 0.5 0.3 0.6 0.2 0 0.1-0.1 0.1-0.2q0 0 0.1 0c0.2-0.1-0.1-0.3-0.1-0.5 0.1-0.2-0.1-0.4-0.2-0.6 0-0.1 0-0.3-0.2-0.3q0-0.1 0.1-0.1c0-0.1 0-0.1-0.1-0.1-0.2 0-0.1-0.1-0.1-0.2 0.1 0.1 0.2-0.1 0.2 0 0 0.3 0.4 0.5 0.3 0.9 0 0.1 0.2 0 0.2 0.1-0.2 0.2 0.2 0.4 0 0.6 0.1 0.1 0.2 0.2 0.3 0.4 0.2-0.5 0-0.9-0.1-1.3 0-0.1-0.1-0.2-0.1-0.4 0 0.1 0.2 0.1 0.2 0.2 0 0.2 0 0.3 0.2 0.5 0 0.1-0.1 0.4 0 0.5q0.1 0 0.1 0c0.1 0.4-0.1 0.9 0.2 1.2 0.1-0.4 0.1-0.8 0-1.2 0 0 0-0.2 0.1-0.2 0-0.1 0-0.2-0.1-0.2 0.1 0 0.1-0.1 0.1-0.2 0.1 0.2 0.2 0.3 0.2 0.4-0.1 0.5 0.2 1-0.2 1.4 0.1 0 0 0.2 0.1 0.2 0 0.1-0.1 0.1-0.1 0.1 0.2 0.3-0.1 0.6 0.1 0.6 0.2 0 0.2-0.3 0.2-0.5 0.2-0.4 0.3-0.8 0.2-1.3 0.2 0 0 0.2 0.2 0.2-0.2 0.3-0.1 0.6-0.2 1 0 0.2-0.2 0.4 0 0.7-0.1 0-0.1-0.1-0.1-0.1-0.1 0.1 0 0.3-0.2 0.3 0.1 0.1 0.1 0.1 0.1 0.2q-0.1 0-0.1-0.1c0 0.2-0.2 0.4-0.1 0.6 0.1-0.1 0.2-0.2 0.3-0.3 0-0.1 0-0.2 0.1-0.3 0.1 0 0-0.1 0-0.2q0.1 0 0.1 0.1c0.1-0.1 0.1-0.2 0.2-0.3 0 0-0.1-0.1-0.1 0 0-0.1 0.1-0.1 0.2-0.2 0-0.1 0-0.1-0.1-0.1 0.2-0.1 0.1-0.4 0.3-0.5 0 0.6-0.3 1.1-0.6 1.6-0.2 0.3-0.3 0.6-0.7 0.8 0.2 0.1-0.1 0.2 0 0.3-0.3 0.3-0.8 0.7-0.5 1.2 0 0-0.1 0-0.1 0.1 0 0.1 0.1 0.2 0.1 0.3-0.2 0.2 0 0.4-0.2 0.7 0 0 0 0.2 0.1 0.2 0.2-0.1 0.1-0.1 0.2-0.2 0.4-0.4 0.6-0.9 0.9-1.4 0 0 0-0.1-0.1-0.1q0 0 0.1 0.1c0.2-0.3 0.1-0.5 0.3-0.8 0.1-0.1 0.1-0.2 0.1-0.4 0.2 0 0-0.3 0.2-0.4 0.1 0 0.1 0.2 0 0.3 0 0 0.1 0.1 0.1 0.1-0.1 0 0 0.1-0.1 0.1 0 0.1 0.1 0.1 0.1 0.1-0.2 0.8-0.4 1.5-0.8 2.3-0.1 0-0.2 0.1-0.2 0.2-0.1 0.1 0 0.2-0.1 0.2-0.3 0.4-0.4 0.8-0.8 1.1 0 0.1-0.1 0.1-0.2 0.2 0 0.3-0.5 0.3-0.4 0.5 0.1 0.2 0.4 0.3 0.7 0.4q-0.1 0-0.1 0.1c0 0 0.1 0 0.2 0-0.1 0-0.1 0.1-0.1 0.1 0.4 0.3 0.2 0.9 0.3 1.3q0 0.1 0.1 0.1c-0.1 0.1-0.1 0.2-0.1 0.3 0.1 0.2-0.2 0.3 0 0.5-0.1 0.1-0.1 0.3-0.1 0.4q0 0.1 0.2 0.2c0.1 0.2 0.4 0.3 0.5 0.4q0 0.1 0 0.1c0.2 0 0.4 0.1 0.5 0.2 0.4 0.4 0.9 0.6 1.3 0.9 0.1 0.2 0.3 0.4 0.4 0.6 0.1 0 0.2-0.1 0.2-0.1-0.1-0.4-0.2-0.7-0.1-1.1 0 0-0.1 0-0.1 0 0.1-0.1-0.1-0.3 0.1-0.4-0.2-0.1 0-0.3-0.1-0.4 0.2-0.1 0-0.2 0.2-0.3-0.2 0-0.1-0.2-0.1-0.2 0.1-0.1 0.1-0.2 0.1-0.3q0 0 0 0c0.2-0.6 0.3-1.3 0-1.8 0 0 0.1 0 0.1-0.1 0 0-0.1-0.1-0.1 0 0.1-0.4-0.2-0.7-0.1-1 0.1-0.1-0.1-0.1-0.1-0.2 0-0.4-0.5-0.6-0.5-1-0.1-0.3-0.2-0.6 0.1-0.7-0.1 0 0.1-0.1 0-0.2 0.6-0.1 1-0.3 1.4-0.6 0.1-0.1 0-0.2 0.1-0.2 0 0 0.1 0 0.1 0 0.1-0.1 0.1-0.2 0.2-0.3 0.2-0.2 0.5-0.5 0.8-0.6 0.2-0.1 0.4-0.2 0.6-0.2 0.5-0.1 0.9 0.1 1.3 0 0.2 0 0.5 0 0.7 0.2 0.1 0.2 0.3 0.5 0 0.8-0.1 0-0.2 0-0.2-0.1-0.3 0-0.5 0.3-0.7 0.4-0.3 0.2-0.5 0.5-0.7 0.9 0 0.1-0.1 0.3-0.3 0.4-0.2 0.2-0.2 0.6-0.4 0.8 0 0 0.1 0.1 0.1 0.1-0.2 0.2-0.1 0.4 0 0.5 0 0.1 0.1 0.3 0 0.5 0 0 0.1 0.1 0.1 0.1q0 0 0 0 0 0 0 0.1c0 0 0 0 0 0 0 0.1 0 0.1 0.1 0.1 0.1 0.1-0.1 0.1-0.1 0.2 0.1 0.1 0 0.2 0.2 0.2 0 0.1 0.1 0.3 0.1 0.4 0 0.1 0.1 0.3 0.3 0.4-0.2 0.3 0.4 0.5 0.3 0.9-0.1 0 0.1 0 0.1 0.1-0.1 0.4 0.2 0.6 0.1 1-0.1 0-0.1 0.1 0 0.2-0.1 0 0.1 0.2-0.1 0.2 0.3 0.2-0.1 0.6 0.2 0.8-0.1 0-0.2 0-0.2 0 0.2 0.3 0.1 0.5 0.1 0.7 0 0.2 0.1 0.5 0.1 0.8 0 0.1-0.1 0.3 0.1 0.4-0.1 0.1-0.1 0.2-0.1 0.2 0.1 0.3 0.1 0.6 0.3 0.8 0 0-0.1 0.1-0.1 0.1 0.2 0.4 0.1 0.8-0.1 1.2 0 0.1-0.1 0.2-0.2 0.4-0.2 0.2-0.6 0.4-1 0.5-0.4 0.1-0.8 0.1-1.2-0.1-0.6-0.3-1.2-0.4-1.8-0.6-1.2-0.2-2.3-0.5-3.4-0.8-0.3-0.1-0.5-0.4-0.8-0.4-0.1 0-0.2-0.1-0.3-0.1-0.3-0.1-0.6-0.5-1-0.5 0.1-0.1 0-0.2 0-0.2 0-0.1-0.2-0.1-0.2-0.2-0.3-0.4-0.7-0.5-1-0.9-0.1 0-0.3 0-0.3 0 0.1 0.5 0.1 0.8 0 1.3 0 0.1-0.2 0-0.2 0.1 0 0.1 0.3 0.1 0.4 0.2q0.2 0.2 0.3 0.4c0.1 0.2-0.1 0.4-0.1 0.6 0 0 0 0 0 0-0.1 0-0.1 0.1-0.1 0.1 0.4 0.4 0.9 0.6 1.3 0.9 0.1 0.1 0.3 0 0.3 0 0.2 0.2 0.4 0.2 0.6 0.3 0.2 0.1 0.5 0.1 0.8 0.3-0.2 0.1-0.4 0-0.6 0-0.5-0.1-1.1-0.1-1.6-0.3q-0.4-0.2-0.9-0.5c-0.1-0.1-0.1 0.1-0.1 0.1 0.2 0.3 0.6 0.5 0.8 0.8 0.1 0.2 0.3 0.4 0.5 0.4 0.4 0 0.9-0.2 1.2 0 0.1 0.1 0.2 0.2 0.3 0.3 0.2-0.1 0.4 0 0.6-0.1 0.3-0.1 0.7 0 1.1 0 0.3 0 0.6-0.1 0.9 0.2-0.7 0.1-1.5-0.2-2.2 0 0.2 0.4 0.6 0.1 0.9 0.4 0.1 0 0.1-0.1 0.1-0.1 0.4 0.1 0.8 0.2 1.2 0.2 0.2-0.1-0.1 0.1 0.1 0.2-0.6-0.2-1.1-0.2-1.7-0.4 0 0 0 0.1 0 0.1-0.1 0-0.2-0.1-0.2 0.1 0 0 0 0 0 0 0 0 0 0 0 0 0 0.1 0.2 0.2 0.2 0.2 0.4 0.2 0.8 0.2 1.1 0.2 0.4 0.1 0.8 0.1 1.1 0.1 0 0 0.1 0.1 0.1 0.1 0.1-0.1 0.2-0.1 0.3-0.1q-0.1 0.1-0.1 0.1c0.1 0.1 0.1 0 0.2 0-0.3 0.1-0.6 0.1-0.9 0 0-0.1-0.1 0-0.2 0-0.2-0.2-0.5-0.1-0.7-0.2-0.1 0-0.3 0-0.5 0-0.1 0-0.1 0.1-0.1 0.1 0.1 0.2 0.5 0.1 0.6 0.3 0 0 0.1 0 0.1-0.1 0 0.2 0.2 0.1 0.4 0.2 0.4 0.3 1 0.2 1.5 0.4v0.1c-0.4 0.1-0.7-0.2-1.1-0.2-0.1-0.1-0.3-0.2-0.5-0.2-0.2-0.1-0.4 0-0.5-0.2-0.1 0.1-0.1 0.2-0.2 0.3 0.3 0.1 0.5 0.2 0.8 0.3q0.4 0.2 0.8 0.4c0.2 0.1 0.6 0.1 0.8 0.3 0.1 0 0.2-0.1 0.3-0.1q0 0.1 0.1 0.1 0 0 0.1 0c0 0 0 0.1 0 0.1-0.4 0.1-0.7-0.2-1.1-0.3-0.1 0-0.1-0.1-0.2-0.1q0 0.1-0.1 0 0 0 0 0-0.3-0.2-0.7-0.1c-0.1 0-0.1 0.2-0.1 0.3 0.1 0.2 0.3 0.2 0.4 0.3 0.3 0.4 0.8 0.7 1.2 1.1-0.6-0.3-1.1-0.9-1.7-1.3-0.1-0.1-0.3-0.2-0.4-0.2-0.2 0.1-0.2 0.3-0.2 0.4 0 0.3 0.2 0.5 0.4 0.7 0.3 0.1 0.3 0.5 0.6 0.5 0 0 0 0.2 0 0.3-0.3-0.2-0.2-0.6-0.6-0.6 0.1-0.2-0.1-0.2-0.2-0.3-0.2-0.3-0.3-0.6-0.6-0.7-0.2-0.1-0.5-0.2-0.7-0.1 0.4 0.5 0.6 1.1 0.9 1.6 0 0.1-0.2-0.2-0.1 0.1q-0.4-0.9-1-1.7c0-0.1-0.1-0.3-0.3-0.2 0-0.1 0.1-0.2 0-0.2-0.2 0 0 0.2-0.2 0.3 0.1 0.1 0.1 0.3 0.3 0.2 0 0.2 0.1 0.5 0.2 0.6 0 0-0.1 0-0.1 0.1 0.2 0.1 0.1 0.3 0.3 0.4-0.2 0.2 0.1 0.3 0 0.5 0-0.1 0-0.1-0.1-0.1q0.1 0 0.1-0.1-0.1-0.1-0.2 0c0.1-0.1 0.1-0.2 0.1-0.2-0.2-0.1-0.1-0.4-0.3-0.5 0.2-0.2-0.2-0.3-0.2-0.6 0-0.2-0.1-0.6-0.3-0.6-0.2-0.1-0.3-0.4-0.5-0.4 0 0-0.1 0.1-0.1 0.1q0.2 0.8 0.1 1.5c0-0.6-0.1-1.2-0.3-1.7-0.2-0.3-0.4-0.6-0.6-0.9-0.2-0.3-0.1-0.6-0.3-0.9-0.1-0.2-0.2-0.2-0.3-0.4 0 0-0.2 0.1-0.1 0.2 0 0 0.1 0.1 0.1 0.1-0.1 0.2 0 0.4 0 0.5 0 0 0 0.2-0.1 0.2q0.1 0.1 0.1 0.1c-0.1 0.2 0 0.4-0.3 0.6 0 0 0.1 0 0.1 0.1-0.1 0-0.1 0.1-0.2 0.2 0.1-0.2 0-0.4 0.1-0.6 0-0.1-0.1-0.1-0.1-0.1 0.1-0.2-0.1-0.3-0.1-0.4 0-0.3-0.2-0.6-0.4-0.9-0.4-0.6-0.6-1.2-0.9-1.9-0.1 0.1 0 0.3 0 0.3-0.3 0.1-0.6 0.2-0.8 0.1-0.2-0.1-0.4-0.1-0.4-0.2-0.3-0.3-0.2-0.7 0-1 0-0.2 0.4-0.2 0.4-0.4 0-0.3-0.5-0.6-0.2-0.9 0.1-0.3 0.1-0.5 0.1-0.7 0-0.2-0.4-0.5-0.6-0.5-0.4-0.1-0.8 0.4-1.2 0.6-0.1 0-0.2 0.2-0.3 0.3-0.2-0.1-0.3 0.1-0.4 0.1-0.2 0.2-0.6 0.2-0.8 0.4-0.1-0.1-0.2 0.1-0.3 0.1 0 0-0.1 0.1-0.1 0.1-0.5 0-0.9 0.2-1.3 0.3-0.4 0.2-0.8 0.2-1.1 0.5 1.2 0.4 2.1 1.1 2.9 2 0.1-0.1 0.1 0.1 0.2 0q0 0-0.1 0.1c0.8 0.5 1.6 1.1 2.4 1.6 0.3 0.2 0.6 0 1 0 0.1 0 0.3 0 0.5 0.1 0.3 0.3 0.6 0.5 0.4 0.9 0 0.1-0.1 0.1-0.1 0.2-0.1 0.3-0.2 0.6-0.2 0.9-0.1 0.5 0.2 1.1 0.1 1.7-0.1 0.4-0.5 0.7-0.9 1 0.2 0.1-0.1 0.2 0 0.3q-0.1 0-0.1-0.1c-0.2 0.5-0.8 0.7-1.2 0.4-0.1-0.1 0-0.2-0.2-0.3 0.3-0.1 0.2-0.4 0.4-0.5q-0.1 0-0.2 0c0.1-0.2 0.2-0.4 0.3-0.6 0-0.3-0.3-0.6-0.2-0.9 0-0.3-0.1-0.8-0.5-0.9q0.1-0.1 0.1-0.1c-0.3-0.1-0.4-0.4-0.7-0.5-0.4-0.1-0.6-0.4-1-0.4-0.1 0-0.1-0.2-0.2-0.2q0 0 0 0.1c-0.1-0.1-0.2-0.1-0.3-0.2 0 0-0.1 0.1-0.1 0.1 0-0.1-0.1-0.1-0.1-0.2q-0.1 0.1-0.1 0.1c-0.6-0.3-1.3-0.4-2-0.6q0 0 0.1 0c-1.1-0.3-2-0.8-2.9-1.5-0.1 0-0.3-0.1-0.3-0.1-0.5-0.4-1.2-0.5-1.7-0.9q0 0 0.1 0c-0.2-0.1-0.3-0.2-0.4-0.3 0 0-0.5-0.4-0.3-1.2 0 0 0.1-0.1 0-0.1 0.1-0.1 0.1-0.3 0.2-0.3 0.5-0.6 1-1.1 1.6-1.5 0.4-0.3 0.6-0.6 0.9-0.9 0.5-0.4 0.9-1 1.5-1.3 0 0 0.1 0 0.2-0.1-0.1 0-0.1-0.1 0-0.1h0.1c0.2-0.1 0.3-0.4 0.5-0.4 0.3-0.1 0.4-0.3 0.6-0.5 0.5-0.2 0.9-0.6 1.4-0.9 0.4-0.2 0.1-0.6 0.2-0.9 0.1 0 0.1-0.1 0.1-0.1-0.1-0.2 0.2-0.4 0.1-0.4-0.3-0.3-0.5 0.2-0.9 0.3 0.1 0.1-0.1 0.1 0 0.2-0.1 0-0.1-0.1-0.1-0.1q-0.6 0.6-1.1 1.3-0.5 0.6-0.9 1.3 0-0.1-0.1-0.1c0.1-0.2 0.1-0.5 0.2-0.8q0.2-0.5 0.4-0.9c0.2-0.3 0.3-0.5 0.5-0.7 0.3-0.2 0.4-0.5 0.7-0.7-0.2-0.1-0.4 0-0.6 0-0.1 0-0.2 0.1-0.3 0.2-0.2 0-0.4 0-0.5 0.1-0.2 0.1-0.3 0.2-0.5 0.3-0.2 0.1-0.3 0.3-0.3 0.5 0 0.3-0.2 0.7-0.4 0.8-0.3 0.2-0.5 0.6-0.8 0.7q0 0.1 0 0.1c-0.3 0.1-0.1 0.7-0.5 0.9q0.1 0.1 0.1 0.2c-0.2 0.1-0.1 0.4-0.2 0.7 0 0-0.1 0-0.1-0.1 0.1 0 0.1 0 0.1-0.1 0 0-0.1-0.1-0.1-0.1 0.2 0 0.1-0.2 0.2-0.2-0.1 0-0.1-0.1 0-0.2 0-0.2 0-0.5 0.1-0.7 0.2-0.1 0.1-0.2 0.2-0.4 0-0.1-0.2-0.1-0.2-0.1-0.4 0.3-0.5 0.6-0.5 1q0 0 0-0.1c-0.2 0.4-0.2 0.8-0.5 1.2 0.1-0.3 0.1-0.5 0.1-0.7 0-0.1 0.2 0 0.2-0.1-0.1-0.3 0.2-0.5 0.1-0.8 0.1 0 0.2 0 0.2-0.1 0-0.2-0.2-0.1-0.3-0.1-0.5 0.1-0.4 0.8-0.7 1.2-0.1 0.2-0.1 0.4-0.1 0.6-0.1 0-0.2 0.1-0.1 0.3-0.1-0.1-0.1 0.1-0.2 0.1 0.1 0.1 0.1 0.1 0.1 0.2-0.1 0-0.2 0-0.2-0.1q0.2-0.3 0.2-0.5c0-0.2 0.2-0.1 0.2-0.2q0-0.7 0.4-1.3c-0.1-0.1 0-0.2-0.1-0.2 0 0-0.1 0-0.1 0.1q0 0-0.1 0c-0.2 0.2-0.1 0.4-0.4 0.4 0.2 0.1 0 0.2 0 0.3 0-0.1-0.1 0-0.1 0 0 0.2-0.1 0.2-0.2 0.3-0.1 0.3 0 0.7-0.4 0.9 0.1-0.2 0.1-0.3 0.2-0.5 0-0.1 0.1-0.2 0.2-0.3 0 0-0.1-0.1 0-0.1 0-0.1 0.1-0.1 0.1-0.1-0.1-0.1 0-0.2 0-0.2 0 0 0.1-0.1 0.1-0.1 0 0-0.1 0-0.1-0.1 0.1-0.1 0.2-0.1 0.3-0.1 0-0.1-0.1-0.1-0.1-0.1q0.1-0.1 0.2-0.2c-0.1 0-0.1-0.1-0.2-0.1-0.1 0-0.2 0.1-0.2 0.1-0.6 0.4-0.8 1.1-1.3 1.6q0 0 0.1-0.1 0-0.1-0.1-0.1c0.2-0.2 0.5-0.4 0.5-0.7q0.1 0 0.1 0c0.2-0.2 0.3-0.4 0.4-0.7 0.1-0.1-0.2-0.1-0.2 0-0.3 0.3-0.7 0.4-0.9 0.8q-0.1-0.1-0.1-0.1 0 0 0 0c0.1-0.2 0.4-0.2 0.5-0.4q0 0 0 0 0.3-0.4 0.7-0.7c-0.3-0.2-0.5 0-0.7 0.1-0.2 0.1-0.5-0.1-0.6 0.1 0 0-0.1-0.1 0-0.1 0.4 0 0.7-0.2 1-0.3 0.1 0 0.4-0.1 0.3-0.3 0-0.1 0-0.1-0.1-0.1-0.1 0.1-0.2 0-0.2 0.2-0.1-0.1-0.2 0.1-0.4 0-0.1 0-0.1 0.1-0.1 0.1q0-0.1-0.1 0-0.1 0-0.1 0.1c0 0 0-0.1 0-0.1-0.1 0-0.1 0.1-0.1 0.1v-0.1q-0.1 0-0.1 0.1c-0.1 0-0.1 0-0.2 0q0.3-0.2 0.7-0.2c0.1 0 0-0.1 0-0.2 0.5 0.1 0.8-0.2 1-0.5-0.2 0-0.4 0.1-0.6 0-0.2 0-0.4-0.1-0.6-0.1v-0.1c0.3 0 0.5 0.1 0.8 0 0 0.1 0 0.1 0.1 0.1 0.2-0.2 0.5 0 0.9-0.1 0-0.1 0.1-0.2 0.1-0.2 0.1-0.1 0-0.1 0-0.2-0.2-0.1-0.4 0.1-0.6 0-0.4-0.1-0.8-0.1-1.1-0.3 0.5 0.2 1.1 0.1 1.6 0.2 0.2 0 0.4 0 0.5-0.2q-0.8-0.3-1.6-0.6c0 0 0-0.1 0-0.1q0.6 0.3 1.2 0.4c0.2 0 0.4 0.1 0.5 0.3 0.1-0.1 0.3-0.1 0.3-0.2-0.1-0.1-0.4-0.2-0.6-0.3-0.1 0-0.1-0.3-0.3-0.2 0-0.1 0-0.2 0-0.2-0.2 0-0.4-0.1-0.5-0.3 0.3 0 0.4 0.3 0.7 0.3 0 0 0.1 0.2 0.2 0.3 0 0 0-0.1 0-0.1 0.1 0.1 0.1 0.2 0.2 0.2 0.2 0.1 0.5 0.1 0.7 0.2 0.1 0 0.3-0.3 0.5-0.2 0 0.1 0.1 0 0.1-0.1 0.3 0.1 0.7 0.3 0.9 0.2 0.5-0.2 1.1-0.6 1.7-0.8 0.3-0.1 0.6 0 0.9-0.1q0-0.1 0-0.1c0.1 0 0.3 0 0.5 0-0.5-0.3-0.9-0.6-1.4-0.9-0.2-0.2-0.5-0.3-0.9-0.2q0.1 0 0.1-0.1 0 0-0.1 0c0.2 0 0.3 0 0.5 0 0.1-0.1 0.1-0.2 0.2-0.1 0.2 0 0.4-0.1 0.6 0.1 0 0 0.1 0 0.1-0.1 0 0.1 0 0.2 0.1 0.2 0.5-0.1 0.8 0.4 1.2 0.6q0 0.1 0 0.1 0.1 0.1 0.3 0.2c0.2 0.2 0.5 0 0.7 0.1 0.1 0 0.1-0.1 0-0.2 0.1 0.2 0.3 0.3 0.5 0.2 0 0 0-0.1-0.1-0.1 0.2 0 0.1-0.1 0.1-0.3q0.1 0.1 0.1 0c-0.1-0.1 0.1-0.2 0-0.3 0.1 0 0.2 0.1 0.2 0 0.2-0.1 0.3-0.2 0.5-0.3 0.1 0 0.2-0.1 0.1-0.2 0-0.4 0.1-0.8-0.1-1.2 0 0 0.1-0.1 0.1-0.1-0.1-0.5 0.2-0.9 0.2-1.3 0.2 0 0-0.2 0.2-0.2-0.6 0-1 0.5-1.5 0.7-0.6 0.2-1.3 0.3-1.9 0.6q-0.9 0.4-1.8 0.8c-0.4 0.2-0.7 0.7-0.7 1.1q0 0-0.1 0c0 0.5-0.7 1-1.1 0.6-0.3-0.3-0.5-0.6-0.9-0.8-0.4-0.2-1-0.2-1.5-0.4-0.3 0-0.7-0.4-0.6-0.8 0 0-0.1-0.1-0.1-0.1 0 0 0-0.1 0-0.1-0.6-0.2-0.7-0.8-0.5-1.4 0 0 0 0.1 0 0.1 0.1-0.1 0.1-0.2 0.2-0.2 0.3 0 0.3 0.3 0.4 0.5 0.1 0.2 0.4 0.1 0.6 0.2q0.3 0.1 0.6 0.2c0.1 0 0.2-0.1 0.4-0.1 0.4-0.1 0.8 0.1 1.2 0 0.3 0 0.7-0.2 0.9-0.4 0.2-0.1 0.3-0.4 0.6-0.5-0.1 0-0.1-0.1-0.1-0.1 0.5-0.3 0.6-0.8 1.1-1.1-0.1 0-0.1-0.1-0.1-0.1 0.5-0.3 0.8-0.8 1.3-1.2 0.7-0.6 1.5-1 2.2-1.6 0.3-0.2 0.6-0.5 0.8-0.8z"></path><path id="&lt;Path&gt;" class="s5" d="m602.1 20.8c-0.1 0-0.2 0.1-0.3 0.1-0.3-0.2-0.5-0.3-0.7-0.4-0.1-0.1-0.4-0.3-0.2-0.5-0.2-0.1-0.4-0.1-0.4 0-0.2 0.4 0.1 0.8 0.4 1 0.1 0.1 0.2 0.3 0.3 0.5 0 0.3 0.3 0.5 0.6 0.5 0 0 0.1-0.1 0.1-0.2q-0.1-0.1-0.1 0c0-0.1 0-0.1 0.1-0.1 0 0 0.1 0.1 0.1 0.1q0 0.1 0 0.2c0 0 0.1 0.1 0.1 0.1 0.2-0.2 0-0.3 0-0.4 0.2 0.1 0.2 0.3 0.2 0.4 0.1 0.2 0.1 0 0.2-0.1 0 0 0 0-0.1-0.1q0 0 0.1-0.1 0 0.1 0.1 0.1c0 0 0-0.1 0-0.1 0 0 0.1 0 0.1 0 0.1 0 0-0.2 0.1-0.1 0.4 0.1 0.5 0.5 0.6 0.8 0.2 0 0.1-0.1 0.1-0.2 0.1 0 0.1 0 0.1 0.1q0 0-0.1 0.1c0.2 0 0.2 0.2 0.3 0.3 0 0 0-0.1 0-0.1 0 0 0.1 0.1 0.1 0.1q0.1 0 0-0.1c0.1 0 0.2 0.1 0.3 0.1 0 0 0.1-0.1 0.1-0.1 0.1 0 0.1 0.2 0.1 0.2 0.2-0.1 0.1-0.3 0.2-0.4 0 0-0.1 0 0-0.1 0 0 0.1 0.1 0.1 0.1 0.3-0.1-0.3-0.2 0-0.3 0.1 0 0 0.2 0.2 0.2q0.1-0.1 0-0.2c0.1-0.2 0.1 0.1 0.2 0 0.2-0.3 0.4-0.6 0.7-0.8 0-0.1 0.1 0 0.1 0 0.2 0 0.2-0.2 0.1-0.2 0-0.2 0-0.3-0.1-0.5h0.2c-0.1 0.2-0.1 0.4 0.1 0.4 0.1 0 0.2-0.2 0.1-0.4 0 0 0-0.1 0.1-0.1 0 0.1 0.1 0.2 0.1 0.3 0.2 0.1 0.1-0.3 0.3-0.3-0.2 0.1 0 0.1 0 0.1 0.1 0 0.1-0.1 0.1-0.1 0.1-0.2 0.1 0.1 0.2 0 0.1-0.1-0.1-0.3 0.2-0.3-0.1 0-0.1 0.1-0.1 0.1 0.2 0.2 0.2-0.1 0.2-0.2 0 0 0 0.1 0 0.1 0.1-0.1 0.3 0 0.3-0.1-0.1-0.2-0.2-0.3-0.1-0.5 0.1 0 0 0.3 0.2 0.3 0 0 0-0.1 0.2-0.1-0.1 0 0 0.1 0 0.1 0.1-0.1 0-0.2 0.1-0.3 0.1 0 0.1 0.1 0.2 0.1 0 0 0.1-0.1 0.1-0.1q0 0.1 0 0.2c0 0 0.1 0 0.1 0 0.1 0 0.1-0.2 0.2-0.2 0 0 0.1 0.1 0.1 0.1 0.2-0.1 0.3-0.1 0.5-0.1 0.2 0-0.1-0.1 0-0.1 0.1-0.1 0.1-0.1 0.1 0 0.1 0 0 0.1 0.1 0.1 0.1 0 0.1-0.3 0.3-0.2 0 0 0 0.1 0.1 0 0.1 0 0-0.3 0.2-0.4 0 0.1 0 0.2 0.1 0.2 0.1 0 0-0.4 0.3-0.2 0-0.1 0-0.2 0.1-0.4 0-0.2-0.4-0.3-0.2-0.4 0.1 0 0.1 0.3 0.2 0.3 0.1 0 0.4-0.1 0.4-0.3 0 0-0.1-0.2-0.2-0.2-0.1 0 0 0.2-0.1 0.2 0 0 0 0-0.1 0-0.1-0.2 0.2-0.1 0.3-0.3 0 0-0.1 0-0.1-0.1 0.2 0.1 0.2 0.3 0.3 0.3 0.2-0.1-0.1-0.4 0.2-0.5 0 0.1 0 0.3 0.1 0.4 0.2-0.3-0.1-0.6 0-0.9 0 0.2 0 0.3 0.1 0.3 0.1 0 0-0.2 0.1-0.3 0.2 0.2 0.2 0 0.3 0 0 0.1-0.1 0.1-0.2 0.2 0.1 0 0 0.2 0.2 0.1-0.1 0-0.1 0.1-0.1 0.1 0 0.1 0.2 0.2 0.1 0.3-0.1 0.1-0.3 0.2-0.3 0.3 0.1 0.2 0.2-0.2 0.3 0-0.2 0-0.2 0.3-0.4 0.3q0.1 0.1 0.1 0.2c0.1-0.1 0.1-0.1 0.2-0.1 0 0.2-0.2 0.1-0.3 0.3 0 0.1 0.1 0 0.2 0.1-0.1 0-0.2 0.1-0.2 0.2 0 0 0 0.1 0 0.2 0 0.1-0.3 0.2-0.2 0.3 0 0.2-0.2 0.3-0.1 0.4 0 0-0.1-0.1-0.1-0.1-0.2 0.2 0.2 0.2 0.1 0.4 0 0.1-0.2 0.1-0.2 0.2-0.1 0.2 0.1 0.3 0.1 0.3q-0.1 0-0.1 0.1c0.1 0 0.1 0.2 0.2 0 0.1 0.3-0.4 0.4-0.2 0.7 0.1-0.1 0.2-0.1 0.2-0.1 0 0.2-0.1 0.3-0.3 0.3 0.2 0.2 0 0.3 0 0.3 0 0.2 0.2 0 0.3 0.2 0.1-0.3 0.4-0.5 0.7-0.3 0.1-0.1 0.4 0 0.2-0.2 0.2 0 0.4 0 0.4 0.2-0.1 0.1-0.3 0.1-0.4 0-0.1 0-0.1 0-0.1 0.1 0.1 0.1 0.2 0.1 0.3 0.2 0.3-0.4 0.9-0.7 1.3-0.2q0.1 0.1 0 0.1c0.1 0 0.1 0.2 0.2 0.2 0 0 0-0.2 0.2-0.2-0.2-0.2-0.2-0.4-0.4-0.5 0 0 0 0 0 0-0.1 0-0.1 0-0.1 0 0.1-0.2 0.3 0 0.3-0.1 0-0.1-0.1-0.2-0.2-0.2 0-0.2 0.1-0.4-0.1-0.4 0 0-0.1 0-0.1 0.1 0.1-0.2-0.1-0.2-0.2-0.3 0 0-0.1 0.1-0.1 0.1 0 0 0.1 0.1 0.1 0.1-0.1 0-0.2 0-0.2 0.1 0.1-0.1-0.1-0.2 0-0.2q0 0.1 0.1 0.1c0 0 0.1 0 0.1-0.1 0 0-0.1 0-0.1 0 0.2-0.1 0.4 0.1 0.5-0.1 0.2 0.2 0.2 0.6 0.2 0.9 0 0.2 0.3-0.2 0.3 0 0.2-0.1 0-0.3-0.1-0.4-0.2-0.2 0.2-0.5 0.2-0.8 0-0.1 0-0.1-0.1-0.1 0.1 0 0.1 0 0.1 0-0.3-0.2-0.2-0.5 0-0.6-0.1-0.2-0.2-0.5-0.4-0.6 0.2 0 0.3 0.2 0.4 0.3 0.1 0 0.2-0.1 0.2-0.1-0.1-0.3-0.4-0.2-0.6-0.5-0.1-0.2-0.2-0.2 0-0.4 0-0.1-0.1-0.2-0.2-0.2-0.1-0.1 0.1 0 0.1-0.1 0.1 0.1 0.2 0.2 0.3 0.2 0.1 0 0.1-0.2 0.1-0.2-0.3-0.1-0.4-0.3-0.6-0.5-0.1 0 0.1 0.1 0.1 0.1 0.1-0.1 0.1-0.2 0.1-0.3-0.1-0.1-0.2-0.1-0.3-0.1 0-0.1 0-0.1 0-0.1 0.1-0.1 0.1 0.1 0.3 0.1 0.1-0.1 0.3 0.1 0.4 0.3 0.1-0.1 0-0.2 0-0.2-0.4-0.3-0.4-0.8-0.8-1q0.1-0.1 0.1-0.1c0.1-0.1 0-0.1 0-0.1 0.3-0.5 0.4 0.1 0.7 0.3 0.1 0 0.1 0 0.1 0-0.3-0.4-0.4-0.9-0.9-1.2 0.2-0.1 0.2 0.2 0.3 0.2 0.1 0 0.2-0.1 0.1-0.1 0-0.2-0.3-0.3-0.4-0.4q0.3 0 0.4 0.3c0.3-0.2 0-0.4-0.2-0.5 0.2-0.1 0.2 0.3 0.4 0.3 0 0.1 0.1 0 0.1 0-0.2-0.2-0.2-0.4-0.4-0.6 0.1 0 0.2 0 0.2 0 0-0.1-0.1-0.2-0.2-0.2 0 0 0.1-0.1 0.1-0.1 0-0.2-0.3-0.1-0.3-0.3 0.1 0.1 0.3 0.1 0.4 0.3 0.2-0.2 0-0.5-0.2-0.7-0.3-0.2-0.6-0.2-1-0.3-0.2-0.1-0.4 0-0.6 0.1-0.2 0-0.4 0.2-0.7 0.4-0.1 0-0.1 0.2-0.2 0.3 0 0.1-0.2 0.2-0.3 0.3q0.1 0 0.1 0c-0.1 0.1-0.2 0.1-0.2 0.2-0.1 0.2-0.3 0.3-0.2 0.5-0.3 0.1-0.5 0.1-0.6 0.3 0 0.1 0.1 0.1 0.2 0.1-0.1 0.1-0.4-0.1-0.5 0.2q-0.1 0 0 0.1c0.1 0 0.1 0 0.2 0 0 0-0.1 0.1-0.1 0.1-0.2-0.1-0.4 0-0.6 0.1q-0.1 0.1 0 0.1c0 0 0.1 0 0.1 0 0 0 0.1 0.1 0 0.1-0.2 0.1-0.6 0-0.7 0.2 0 0 0.2 0 0.3 0-0.2 0.1-0.5 0.1-0.6 0.3 0 0.1 0.3 0 0.4 0.1-0.1 0-0.3 0-0.4 0q-0.1 0.1-0.3 0.1c-0.2 0.1 0.1 0.2 0 0.3-0.2 0.1-0.3 0-0.5 0.1 0.1 0 0.1 0.1 0.1 0.1-0.1 0.2-0.4 0-0.4 0.2 0 0.1-0.1 0.2 0 0.2h0.1c0 0 0 0 0.1 0-0.2 0-0.3 0.2-0.4 0.1 0 0-0.4 0-0.1 0.2q0 0 0-0.1c0.2 0.1 0 0.2 0 0.2-0.2 0-0.4 0-0.5 0.2 0 0.1 0.3 0 0.3 0.1-0.1 0.2-0.4 0-0.5 0.2 0 0.1 0.1 0 0.2 0.1-0.1 0.2-0.4 0-0.4 0.3-0.1 0 0 0 0 0.1-0.1 0.1-0.4 0-0.5 0.2 0.1 0 0.2 0 0.3 0.1-0.2 0.1-0.4 0.1-0.5 0.1q-0.2 0.2-0.3 0.4c-0.2 0.1-0.4 0.3-0.6 0.3-0.7 0.3-1.5 0-2.2 0.4z"></path><path id="&lt;Path&gt;" class="s5" d="m614.1 18.8c-0.1-0.1-0.1-0.2-0.3-0.2-0.1 0-0.1 0.1 0 0.2 0 0.2 0.2 0.3 0.4 0.2q0 0.1 0 0.1c0.1 0.1 0.2 0 0.2 0-0.1-0.1-0.2-0.2-0.3-0.3z"></path><path id="&lt;Path&gt;" class="s5" d="m614.1 18.1c0-0.1 0-0.1 0-0.1-0.2 0 0 0.2 0 0.3q0.1 0 0.1 0c0 0 0 0 0 0 0.1 0 0.1 0 0.1-0.1 0-0.1-0.1-0.1-0.2-0.1z"></path><path id="&lt;Path&gt;" class="s5" d="m614 18c0.1 0 0.1 0 0.1-0.1 0 0-0.1-0.1-0.1 0-0.1 0-0.2 0-0.1 0.1 0 0 0.1 0 0.1 0z"></path><path id="&lt;Path&gt;" class="s5" d="m613.8 16.4c0 0-0.1-0.1-0.1-0.1-0.2 0.2 0.1 0.4 0.3 0.5 0 0.1 0.1 0 0.1 0-0.1-0.1-0.2-0.3-0.3-0.4z"></path><path id="&lt;Path&gt;" class="s5" d="m613.8 16.7q-0.1 0-0.2-0.1c0 0-0.1 0.1-0.1 0.1 0 0.1 0.2 0.2 0.3 0.2 0.1 0 0-0.1 0-0.2z"></path><path id="&lt;Path&gt;" class="s5" d="m613.9 15.8c0 0-0.1-0.1-0.1-0.1-0.2 0.1 0 0.3 0.2 0.4 0-0.1 0.1-0.1 0.1-0.2 0 0-0.2 0-0.2-0.1z"></path><path id="&lt;Path&gt;" class="s5" d="m614.2 18.6q0 0.1 0 0.1c0 0 0.1-0.1 0.1-0.1z"></path><path id="&lt;Path&gt;" class="s5" d="m602.9 22.2c0 0 0 0.1 0 0.1 0.2-0.1 0.1-0.2 0.1-0.3 0-0.1-0.1-0.1-0.2 0-0.2 0 0.2 0.1 0.1 0.2z"></path><path id="&lt;Path&gt;" class="s5" d="m600.8 19.9q0 0 0-0.1c0-0.1-0.1-0.1-0.2-0.1-0.1 0.1 0 0.2 0 0.2 0 0.1 0.1 0.1 0.2 0z"></path><path id="&lt;Path&gt;" class="s5" d="m611.2 22.9q0 0.1-0.1 0.1c0-0.1-0.3 0-0.4-0.1 0 0.1-0.2 0.1-0.2 0.4 0 0.1 0 0.2 0.1 0.3 0.1-0.2 0-0.4 0.2-0.4 0.1 0 0.1 0.1 0.1 0.1 0.1 0 0.1-0.1 0.1-0.1 0.4-0.2 0.4 0.2 0.7 0.4 0.1-0.2 0-0.4 0.1-0.6 0-0.2 0.2-0.3 0.4-0.5-0.1 0-0.1-0.1-0.1-0.1-0.2 0.1-0.3 0.3-0.5 0.4 0.1-0.3 0.2-0.4 0.5-0.4-0.2-0.2-0.3-0.2-0.5-0.2-0.4 0.1-0.4 0.4-0.4 0.7z"></path><path id="&lt;Path&gt;" class="s5" d="m610.3 23.2q0.2-0.2 0.4-0.4c0-0.1-0.1-0.1-0.1-0.1-0.3 0.1-0.5 0.3-0.7 0.6q0.1 0 0 0.1c0 0-0.1 0.1 0 0.1 0.2 0.1 0.2 0.4 0.3 0.6 0-0.1 0.2 0 0.2-0.1 0-0.1-0.1-0.1-0.1-0.1 0-0.2-0.2-0.5 0-0.7z"></path><path id="&lt;Path&gt;" class="s5" d="m611.1 23.8q0.1 0.1 0.2 0.1c0 0 0.1-0.1 0-0.1 0-0.1-0.1-0.2-0.2-0.2-0.1 0-0.2 0-0.2 0.1 0 0.1 0.2 0.1 0.2 0.1z"></path><path id="&lt;Path&gt;" class="s5" d="m610.6 23.8c0 0 0.1 0 0.1 0 0-0.1-0.1-0.1-0.1-0.1-0.1 0.1-0.3 0.3-0.1 0.4 0.1 0 0.2-0.1 0.1-0.3z"></path><path id="&lt;Path&gt;" class="s5" d="m607.2 23c0.1 0 0.3 0.1 0.4 0.2 0.1 0 0.1-0.2 0.1-0.2-0.3-0.2-0.6-0.4-0.9-0.5-0.1 0-0.1 0-0.1 0.1 0.1 0.2 0.3 0.2 0.5 0.4z"></path><path id="&lt;Path&gt;" class="s5" d="m607.1 24.9c0.1 0 0.1-0.1 0.2-0.2 0 0 0 0.1 0 0.1 0.1-0.3 0.3-0.4 0.6-0.6-0.1 0-0.1-0.1-0.1-0.1-0.5 0.2-0.9 0.7-1.3 1.1 0 0.1-0.1 0.1-0.2 0.2q-0.1 0.2-0.1 0.4c-0.2 0-0.1 0.1-0.2 0.2 0 0 0 0.1 0.1 0.1 0-0.1 0.2-0.1 0.2-0.2 0.2-0.4 0.5-0.6 0.8-1z"></path><path id="&lt;Path&gt;" class="s5" d="m607.3 23.9q0 0.1 0.1 0.1 0.1-0.1 0-0.2c0.3 0 0.6 0.1 0.8 0-0.5-0.2-1 0-1.4 0.2q0 0 0.1 0.1c0.1-0.1 0.3-0.1 0.4-0.2z"></path><path id="&lt;Path&gt;" class="s5" d="m609 23.9c0.2-0.1 0.4 0 0.5 0 0.2 0 0.4 0.1 0.4 0-0.1-0.4-0.6-0.1-1-0.2-0.1-0.1-0.4-0.1-0.6 0.1 0.1 0.1 0.3 0.1 0.3 0.1 0.2-0.1 0.2 0 0.4 0z"></path><path id="&lt;Path&gt;" class="s5" d="m608.2 24.1c0 0 0-0.1 0-0.1 0-0.1-0.4 0-0.4 0.2 0.1 0.1 0.2 0 0.3 0q0.1 0 0.1-0.1z"></path><path id="&lt;Path&gt;" class="s5" d="m604.6 24.9c-0.1-0.1-0.1-0.3-0.3-0.3-0.1 0-0.1 0.1-0.1 0.1q0 0.1 0.1 0.1c-0.1 0.1-0.2 0.3-0.1 0.4 0 0.1 0.2 0.2 0.2 0.1 0.3-0.1 0.6-0.3 0.6-0.6 0-0.1-0.2 0.3-0.4 0.2z"></path><path id="&lt;Path&gt;" class="s5" d="m603.9 25c0.2 0 0.2-0.1 0.3-0.2q-0.1 0-0.1-0.1 0 0 0.1 0c-0.3-0.2-0.6 0-0.8 0.2 0.1 0.1-0.1 0.1-0.1 0.1 0 0.1 0.1 0.1 0.1 0.2 0.3 0 0.4-0.2 0.5-0.2z"></path><path id="&lt;Path&gt;" class="s5" d="m603.2 25.1c0-0.1-0.1-0.1-0.1-0.2-0.1 0.1-0.1 0.2-0.2 0.3q0.1 0 0.2 0.1c0 0 0.1-0.1 0.1-0.2z"></path><path id="&lt;Path&gt;" class="s5" d="m602.6 25.5c0.2 0 0.1-0.3 0-0.4-0.1 0.1-0.2 0.3-0.3 0.4-0.1 0.2 0.1 0.1 0.1 0.2 0.1 0 0.1-0.2 0.2-0.2z"></path><path id="&lt;Path&gt;" class="s5" d="m603.1 25.9c0-0.2 0-0.4-0.2-0.5-0.1 0.2-0.3 0.2-0.4 0.5 0 0.1-0.1 0.1-0.1 0.2 0.2 0.2 0.6 0 0.7-0.2z"></path><path id="&lt;Path&gt;" class="s5" d="m603.5 25.8c0.1-0.1 0.1-0.3 0.2-0.4-0.3-0.3-0.6 0.1-0.6 0.4 0 0.1 0.3 0.1 0.4 0z"></path><path id="&lt;Path&gt;" class="s5" d="m604.1 25.5c0.1-0.1-0.1-0.2 0-0.3 0 0 0-0.1-0.1 0-0.2 0.1-0.4 0.3-0.2 0.6 0.1-0.1 0.2-0.2 0.3-0.3z"></path><path id="&lt;Path&gt;" class="s5" d="m604.6 25.7c0-0.1 0.1-0.2 0-0.2-0.2 0-0.3 0-0.4 0.1 0 0.1 0 0.2-0.1 0.3 0.2 0.2 0.4 0 0.5-0.2z"></path><path id="&lt;Path&gt;" class="s5" d="m603.9 26.2c0.1 0 0-0.2 0-0.2-0.2-0.2-0.3 0.2-0.4 0.4 0 0.1 0.1 0.1 0.2 0.1 0.1-0.1 0.1-0.2 0.2-0.3z"></path><path id="&lt;Path&gt;" class="s5" d="m603 26.3c-0.1 0-0.1 0.1-0.1 0.2q-0.1 0-0.1 0c0 0.1 0 0.4 0.1 0.3 0.2 0 0.6-0.3 0.5-0.6-0.1-0.1-0.3-0.1-0.4 0.1z"></path><path id="&lt;Path&gt;" class="s5" d="m602.3 26c0-0.1 0.1-0.2 0-0.2-0.2 0.1-0.5 0.2-0.4 0.4q-0.1 0-0.1 0.1c0 0.2 0.2 0.2 0.3 0.1 0.1-0.1 0.3-0.2 0.2-0.4z"></path><path id="&lt;Path&gt;" class="s5" d="m602.6 26.7c0 0-0.1-0.1 0-0.2-0.1-0.1-0.3 0-0.4 0.1 0.1 0.1 0 0.3 0.2 0.3q0.1-0.1 0.2-0.2z"></path><path id="&lt;Path&gt;" class="s5" d="m601.8 26.7c-0.1 0-0.2 0.1-0.2 0.3 0.1 0 0.1 0 0.2 0 0.1 0 0.2-0.1 0.2-0.2 0-0.1-0.1-0.1-0.2-0.1z"></path><path id="&lt;Path&gt;" class="s5" d="m601.6 26.5c0-0.1 0-0.2 0-0.3 0 0-0.1 0-0.1 0-0.1 0-0.3 0.2-0.1 0.3 0 0.1 0.1 0 0.2 0z"></path><path id="&lt;Path&gt;" class="s5" d="m601.4 27c0.1-0.2-0.1-0.2-0.1-0.2q-0.1 0.1-0.2 0.2c0 0.1 0.1 0.2 0.2 0.1 0.1 0 0.1-0.1 0.1-0.1z"></path><path id="&lt;Path&gt;" class="s5" d="m613.9 15.6c0.1-0.1 0-0.1-0.1-0.2 0 0-0.1 0-0.1 0.1 0 0 0.1 0.2 0.2 0.1z"></path><path id="&lt;Path&gt;" class="s5" d="m614.4 17.8c0-0.1 0.1-0.2 0-0.2-0.1 0-0.1 0.1-0.1 0.2z"></path><path id="&lt;Path&gt;" class="s5" d="m614.7 18.1c0 0 0-0.1-0.1-0.1 0 0-0.1 0.1 0 0.1 0 0 0.1 0 0.1 0z"></path><path id="&lt;Path&gt;" class="s5" d="m612.8 22.4q0.1 0 0.1-0.1c0 0-0.1-0.2-0.1-0.1-0.2 0.1-0.4 0.2-0.3 0.3 0 0.2 0.2 0.1 0.3-0.1z"></path><path id="&lt;Path&gt;" class="s5" d="m612.6 22.8c-0.2-0.1-0.4 0-0.5 0-0.2 0 0 0.1 0 0.2 0.2-0.2 0.4-0.1 0.5 0.1 0.1 0 0.2 0 0.2-0.1 0-0.1 0-0.2-0.2-0.2z"></path><path id="&lt;Path&gt;" class="s5" d="m613.3 22.8c0 0 0-0.1-0.1-0.2-0.1 0-0.1 0.1-0.1 0.1 0.2 0.1 0 0.5 0.3 0.5 0 0.1 0.1 0 0.1-0.1-0.1 0 0-0.2-0.2-0.3z"></path><path id="&lt;Path&gt;" class="s5" d="m612.6 23.4c0.1 0 0.2 0 0.1-0.1 0-0.1-0.3-0.2-0.4 0-0.1 0 0 0.1 0 0.1 0.1-0.1 0.2 0 0.3 0z"></path><path id="&lt;Path&gt;" class="s5" d="m612.9 24c0.2 0.1 0.3 0.1 0.3 0 0-0.1-0.2-0.3-0.2-0.2-0.2 0-0.3-0.1-0.4-0.1-0.1-0.1-0.2 0-0.3 0-0.1 0.1 0 0.2 0 0.2 0.3-0.1 0.5 0.1 0.6 0.1z"></path><path id="&lt;Path&gt;" class="s5" d="m613.3 23.5c0 0 0-0.1-0.1-0.1-0.1 0.1-0.1 0.1-0.1 0.1 0.2 0.4 0.5 0.2 0.6-0.1 0 0-0.1 0-0.1 0-0.1 0-0.2 0.1-0.3 0.1z"></path><path id="&lt;Path&gt;" class="s5" d="m611.9 24.4c0.1 0 0.1-0.1 0.2-0.1-0.2-0.2-0.5 0-0.6-0.3 0 0.1-0.1 0.1-0.1 0.2 0.1 0 0.2 0.1 0.4 0.2 0 0 0 0 0.1 0z"></path><path id="&lt;Path&gt;" class="s5" d="m611.7 23.8c0 0 0.1 0 0.1 0 0-0.1-0.2 0-0.2-0.1-0.1 0-0.1 0.1-0.1 0.1 0 0 0 0.1 0.1 0.1 0 0 0 0 0.1-0.1z"></path><path id="&lt;Path&gt;" class="s5" d="m610.7 24.3c0.1 0 0.2 0 0.2 0 0-0.2-0.2-0.2-0.2-0.3-0.1 0.1-0.3 0.4-0.1 0.5 0 0 0-0.1 0-0.2 0.1 0 0.1 0 0.1 0z"></path><path id="&lt;Path&gt;" class="s5" d="m614.5 23c0.1-0.2-0.1-0.2-0.1-0.3-0.2 0.1-0.3 0.4 0 0.4 0 0 0.1-0.1 0.1-0.1z"></path><path id="&lt;Path&gt;" class="s5" d="m614.2 23.3c0.1-0.1-0.1-0.1-0.1-0.2-0.1 0.1 0 0.2-0.1 0.2 0.1 0.1 0.1 0.1 0.2 0z"></path><path id="&lt;Path&gt;" class="s5" d="m614.2 23.7q0.1-0.1 0.1-0.1c-0.1-0.1-0.3-0.1-0.4 0 0 0.2 0.2 0.3 0.3 0.1z"></path><path id="&lt;Path&gt;" class="s5" d="m614.8 23.3c0.2 0 0-0.1 0.1-0.1 0.1-0.1 0.3-0.1 0.3 0.1 0.1 0.2 0.3 0.2 0.4 0.4 0 0 0-0.1 0-0.1 0-0.3-0.2-0.6-0.4-0.7-0.5-0.1-0.7 0.4-1 0.7 0.1 0 0.2 0.1 0.2 0.1 0.2 0 0.2-0.4 0.4-0.4z"></path><path id="&lt;Path&gt;" class="s5" d="m614.8 23.5q0 0 0 0.1c0 0 0 0 0 0q0 0 0 0.1c0.1 0 0.1 0.3 0.3 0.3q0.1-0.1 0.1-0.2c-0.1-0.1 0.1-0.4-0.2-0.5-0.1 0-0.1 0.1-0.2 0.2z"></path><path id="&lt;Path&gt;" class="s5" d="m614.8 22.4c0-0.1-0.1-0.1-0.1-0.2-0.1 0-0.1 0-0.1 0 0.1 0.1-0.1 0.3 0.2 0.3-0.1 0-0.2 0-0.2 0 0 0.5 0.8 0.1 1.2 0.1 0 0 0-0.1 0-0.1-0.4 0-0.8 0.3-1-0.1z"></path><path id="&lt;Path&gt;" class="s5" d="m615.6 22.3c0.1 0 0.2 0 0.3 0 0.1 0.1 0.2 0.2 0.3 0.3 0 0 0.1-0.1 0.1-0.1-0.1-0.3-0.3-0.4-0.6-0.4-0.3 0-0.6 0.1-0.6 0.3-0.1 0.2 0.3-0.1 0.5-0.1z"></path><path id="&lt;Path&gt;" class="s5" d="m616 23.1c0-0.1 0-0.1-0.1-0.1q0 0 0 0.1c0 0.1 0.1 0.1 0.1 0.1 0.1 0 0.1-0.1 0-0.1z"></path><path id="&lt;Path&gt;" class="s5" d="m615.8 22.9c0 0.1 0.2 0.1 0.2 0 0-0.1-0.1-0.3-0.2-0.3-0.2 0.1 0 0.2 0 0.3z"></path><path id="&lt;Path&gt;" class="s5" d="m616.6 22.9q0.1 0.1 0.1 0.1c0.1-0.1 0.2-0.1 0.1-0.2 0 0-0.1 0-0.2-0.1 0-0.1-0.1 0-0.1 0 0 0.1 0.1 0.1 0.1 0.2z"></path><path id="&lt;Path&gt;" class="s5" d="m616.1 23.5c-0.1 0-0.1 0.1-0.1 0.2-0.1 0.1 0 0.1 0 0.1 0.1-0.1 0.4-0.1 0.4-0.2 0-0.1-0.2-0.1-0.3-0.1z"></path><path id="&lt;Path&gt;" class="s5" d="m616.5 23.9q0.1 0 0.1-0.1c-0.1-0.1-0.2-0.1-0.2-0.1q-0.1 0.1-0.1 0.1 0.1 0.2 0.2 0.1z"></path><path id="&lt;Path&gt;" class="s5" d="m616.7 24.3c0-0.1 0-0.3-0.1-0.3-0.1 0.1 0 0.3 0 0.4 0 0 0 0.1 0.1 0 0.1 0 0.1-0.1 0-0.1z"></path><path id="&lt;Path&gt;" class="s5" d="m617 24.4c0 0 0.1 0.1 0.1 0 0.1 0 0.1 0 0.1-0.1-0.1-0.1-0.2 0-0.2 0.1z"></path><path id="&lt;Path&gt;" class="s5" d="m617.8 21.9c0-0.2 0-0.5 0.1-0.7 0 0 0-0.1-0.1 0-0.3 0.2-0.1 0.7-0.2 1 0 0-0.1 0.1-0.1 0.1 0.1 0.1 0 0.3 0.1 0.5q0.2-0.4 0.2-0.9z"></path><path id="&lt;Path&gt;" class="s5" d="m617.6 20.8q0 0.1 0.2 0.2c0 0 0.1 0 0.1-0.1q0-0.3-0.1-0.6c-0.1-0.2-0.1-0.3-0.2-0.4-0.3 0.3 0.1 0.5 0 0.9z"></path><path id="&lt;Path&gt;" class="s5" d="m618.3 21.5q-0.1 0 0 0.1c0.1 0.1 0.1-0.1 0.3-0.1-0.1-0.1-0.2-0.1-0.3 0z"></path><path id="&lt;Path&gt;" class="s5" d="m618.3 21.9q0-0.1 0-0.1c-0.1 0.1-0.3 0.4-0.1 0.5 0-0.1 0.2-0.2 0.1-0.4z"></path><path id="&lt;Path&gt;" class="s5" d="m618.1 22.5c0-0.1 0.2-0.1 0.1-0.1q0-0.1-0.1-0.2c-0.2 0.2-0.2 0.5-0.4 0.7 0 0 0.1 0.1 0.1 0.1 0.2-0.1 0.3-0.3 0.3-0.5z"></path><path id="&lt;Path&gt;" class="s5" d="m618.4 20.3c0 0.1 0.1 0.2 0.1 0.2 0.1-0.1 0.1-0.1 0.1-0.2 0.1-0.3 0.1-0.6 0.1-0.9 0-0.1 0-0.2 0-0.3 0.1 0 0.1-0.1 0.2-0.1 0-0.1-0.1-0.1-0.1-0.1 0 0 0.1 0 0.1 0 0-0.1-0.1-0.1-0.1-0.1q0-0.1 0.1-0.1-0.1-0.1-0.1-0.2c-0.1 0 0 0 0-0.1 0 0 0-0.1-0.1 0-0.1 0.1 0 0.2-0.2 0.3 0 0.1 0 0.1 0.1 0.2-0.1 0-0.2 0.1-0.2 0.1 0.3 0.4 0.1 0.9 0 1.3z"></path><path id="&lt;Path&gt;" class="s5" d="m618.6 20.8c0.1-0.1 0.1-0.3 0-0.4-0.2 0.1-0.1 0.3 0 0.4z"></path><path id="&lt;Path&gt;" class="s5" d="m618.5 21q0-0.1 0-0.1c-0.2 0.1-0.1 0.2-0.1 0.3 0.1 0.1 0.1-0.1 0.2-0.1q-0.1 0-0.1-0.1z"></path><path id="&lt;Path&gt;" class="s5" d="m618.1 18.9c0 0.1 0.1 0.2 0.1 0.2 0.1 0.2 0.1 0 0.2 0-0.1-0.2 0.1-0.7-0.2-0.6-0.1 0-0.1 0.2-0.1 0.4z"></path><path id="&lt;Path&gt;" class="s5" d="m618.1 18.2q0-0.1-0.1-0.1c-0.2 0-0.3 0.2-0.1 0.3 0 0 0.2 0 0.2-0.2z"></path><path id="&lt;Path&gt;" class="s5" d="m617.9 17.8c0 0 0.1 0.1 0.1 0.1 0.3 0 0.1-0.4 0.3-0.5 0 0-0.1-0.1-0.2-0.1-0.2 0-0.1 0.3-0.2 0.5z"></path><path id="&lt;Path&gt;" class="s5" d="m617.9 17.2c0.1-0.1 0.1-0.2 0-0.2-0.1 0-0.1 0.1-0.1 0.1 0 0.1 0.1 0.1 0.1 0.1z"></path><path id="&lt;Path&gt;" class="s5" d="m617.9 16.7q0 0.1 0 0.1c0.1 0.1 0.1 0.1 0.2 0.1q-0.1 0-0.1 0c0 0.1 0.1 0.1 0.1 0.1 0.1 0 0.1-0.1 0.2-0.1-0.2-0.1 0-0.4-0.2-0.5q-0.1 0-0.2 0.1c0 0.1 0.2 0 0 0.2z"></path><path id="&lt;Path&gt;" class="s5" d="m618.8 16.3c0.2-0.2-0.1-0.3 0-0.4 0 0 0-0.1-0.1 0-0.2 0.1-0.2 0.2-0.2 0.4 0 0.1 0.2 0 0.2 0.1 0.1 0 0.1-0.1 0.1-0.1z"></path><path id="&lt;Path&gt;" class="s5" d="m618.3 16.3q0 0 0.1 0.1c0 0 0-0.1 0-0.1z"></path><path id="&lt;Path&gt;" class="s5" d="m618.6 16.8q0-0.1 0-0.1c0-0.1-0.2-0.2-0.2-0.2-0.2 0.1-0.1 0.4-0.1 0.5 0.1 0.2 0.3 0 0.4-0.1 0 0-0.1-0.1-0.1-0.1z"></path><path id="&lt;Path&gt;" class="s5" d="m619.1 16.5c0-0.1-0.1-0.1-0.2-0.2q-0.1 0.3-0.1 0.5c0 0.1 0.1 0.1 0.1 0.1q0.2-0.2 0.2-0.4z"></path><path id="&lt;Path&gt;" class="s5" d="m619.1 17.5c0.2 0.1 0.2-0.2 0.3-0.1-0.1-0.1-0.1-0.1 0-0.2 0-0.1-0.2-0.1-0.3-0.2 0 0.1-0.2 0-0.2 0.1 0.1 0.2 0 0.3 0.2 0.4z"></path><path id="&lt;Path&gt;" class="s5" d="m618.8 17.4q-0.1-0.1-0.2-0.2c0 0.1-0.2 0.2-0.2 0.3 0 0.1 0.1 0 0.2 0.1 0 0 0 0 0 0.1q0 0.1 0.2 0c-0.2-0.1 0-0.2 0-0.3z"></path><path id="&lt;Path&gt;" class="s5" d="m618.6 18.1c0 0 0-0.1-0.1-0.1 0 0 0-0.1 0.1-0.1-0.1-0.1-0.2-0.1-0.2-0.2-0.1 0.2-0.3 0.3-0.2 0.4 0 0.1 0.1 0.3 0.2 0.3 0.2 0 0.1-0.2 0.2-0.3z"></path><path id="&lt;Path&gt;" class="s5" d="m618.8 18.2q0.1 0 0.1-0.1c0.1-0.1 0-0.2-0.1-0.3 0 0.1-0.2 0.1-0.2 0.2 0.1 0.1 0.2 0.1 0.2 0.2z"></path><path id="&lt;Path&gt;" class="s5" d="m619.5 18c0-0.2-0.2-0.2-0.2-0.3-0.1 0.2 0 0.3 0 0.5 0 0 0 0.1 0.1 0.1 0.1-0.1 0.1-0.2 0.1-0.3z"></path><path id="&lt;Path&gt;" class="s5" d="m619.2 18.7c0 0 0.1 0 0.1 0 0-0.1-0.1-0.1-0.2-0.2-0.1 0.2-0.1 0.4-0.1 0.5 0 0.1-0.1 0.1-0.1 0.1 0 0.1 0 0.2 0 0.2 0.3 0 0.4-0.3 0.3-0.6z"></path><path id="&lt;Path&gt;" class="s5" d="m618.4 22.9c0.3-0.4 0.6-0.7 0.8-1.1 0 0 0-0.1-0.1 0-0.2 0.2-0.5 0.5-0.7 0.8-0.1 0.1-0.3 0.2-0.3 0.4-0.2 0-0.2 0.2-0.3 0.3 0 0.1 0 0.1 0.1 0.1 0.2-0.1 0.3-0.3 0.5-0.4 0 0 0 0 0 0 0-0.1 0-0.1 0-0.1z"></path><path id="&lt;Path&gt;" class="s5" d="m619.4 21.7c0-0.1 0-0.1 0-0.1 0 0 0-0.1-0.1-0.1 0 0.1-0.2 0.1-0.2 0.2 0.1 0 0.1 0.1 0.1 0.1 0.1 0 0.1-0.1 0.2-0.1z"></path><path id="&lt;Path&gt;" class="s5" d="m617.9 25.1c0 0.1 0.3 0.2 0.1 0.4 0 0 0.1 0 0.1 0.1q0 0.3-0.1 0.6 0.1 0.2-0.1 0.3c0 0.1 0.1 0.1 0.2 0.1-0.1 0.1-0.3 0.2-0.1 0.3 0.1 0 0.1-0.1 0.2-0.2 0 0.2 0.1 0.4 0 0.7 0 0 0.1 0 0.1 0-0.1 0.2 0.1 0.4 0 0.7 0 0 0.1 0.1 0.1 0 0 0.1-0.1 0.2 0 0.3 0.3 0.3 0.1 0.6 0.4 0.9l0.1-0.1v0.1c0.2-0.1 0-0.2 0.1-0.3 0-0.1-0.2-0.1-0.2-0.2-0.1-1-0.2-1.9-0.1-2.9 0-0.1 0-0.3 0-0.4 0.1-0.3 0-0.6-0.1-0.9 0-0.2-0.3-0.4-0.5-0.5-0.2-0.1-0.3-0.1-0.4 0.1 0 0 0.1 0.1 0.1 0.1 0.1 0.2-0.2 0.3-0.1 0.4 0 0.2 0.2 0.2 0.2 0.4z"></path><path id="&lt;Path&gt;" class="s5" d="m617.6 25.6c0 0.1 0.1 0.2 0.2 0.2 0 0.1 0.1 0 0.1 0q-0.1-0.3-0.3-0.4c-0.1 0-0.2 0-0.1 0.1 0 0 0.1 0.1 0.1 0.1z"></path><path id="&lt;Path&gt;" class="s5" d="m617.9 25.2c0-0.2-0.2-0.1-0.2-0.2q0-0.1 0.1-0.1c-0.1-0.1-0.1-0.1-0.2-0.2-0.2 0.3 0 0.6 0.2 0.7 0.1 0 0.1-0.2 0.1-0.2z"></path><path id="&lt;Path&gt;" class="s5" d="m618.1 27.6c-0.1-0.2 0-0.3-0.1-0.5-0.1-0.1-0.1-0.1-0.3-0.3 0 0 0 0.2-0.1 0.2 0.3 0.4-0.1 0.8 0.3 1.1 0.1 0.1 0.2 0.1 0.3 0-0.2-0.1-0.1-0.3-0.1-0.5z"></path><path id="&lt;Path&gt;" class="s5" d="m617.5 27.2c0-0.2-0.1-0.3-0.1-0.5-0.3 0.2-0.1 0.6-0.2 0.9 0 0 0.1 0 0.1 0 0 0-0.1 0.1 0 0.1q0 0.1 0.1 0.2 0.1 0 0.1-0.1c0.1-0.2 0-0.4 0-0.6z"></path><path id="&lt;Path&gt;" class="s5" d="m617.1 27.1q0-0.1 0-0.2c-0.1-0.1-0.1-0.1-0.1-0.1-0.3 0.2-0.1 0.5-0.2 0.8 0 0 0.1 0 0.1 0 0.2-0.1 0.2-0.3 0.2-0.5z"></path><path id="&lt;Path&gt;" class="s5" d="m617.3 26.2c-0.2 0.1 0.1 0.1 0.1 0.1 0.1 0 0-0.1 0-0.1 0 0-0.1 0-0.1 0z"></path><path id="&lt;Path&gt;" class="s5" d="m616.5 25.9q0-0.1 0-0.1 0-0.1-0.1-0.1 0-0.1 0-0.1c0-0.1-0.1-0.1-0.1-0.1-0.3 0.3-0.1 0.6 0.1 0.8 0.2-0.1 0.1-0.3 0.1-0.4z"></path><path id="&lt;Path&gt;" class="s5" d="m616.1 26.6c0 0.2 0.2 0.3 0.1 0.4-0.1 0.1 0.1 0 0.1 0.1 0.2-0.1 0.1-0.3 0-0.4 0-0.2 0.1-0.5-0.1-0.4-0.1 0 0 0.2-0.1 0.3z"></path><path id="&lt;Path&gt;" class="s5" d="m616.2 27.6c0 0 0 0.1-0.1 0.1 0 0.1 0.1 0.1 0.1 0.1 0.2 0 0.2-0.3 0-0.5 0-0.1-0.2-0.2-0.2 0 0 0.1 0 0.2 0.2 0.3z"></path><path id="&lt;Path&gt;" class="s5" d="m613.3 24.5c-0.2 0.1-0.3 0-0.4 0.1q0-0.1-0.1-0.1c-0.3 0-0.4 0.2-0.7 0.2-0.1 0-0.1 0.2-0.2 0.2-0.1 0.1-0.3 0.2-0.4 0.3-0.2 0.9-0.2 1.9 0.4 2.8 0 0-0.1 0-0.1 0.1 0.2 0.1 0.3 0.3 0.4 0.5 0.1 0.2 0.3 0.2 0.5 0.4 0 0 0 0.2 0.1 0.2 0 0 0.1 0 0.1 0 0 0.1 0.2 0.1 0.2 0.2 0.2 0.3 0.5 0.2 0.7 0.2 0.1 0 0.3-0.1 0.4-0.3 0.1 0 0-0.1 0-0.1 0.2-0.1 0.1-0.4 0.1-0.5-0.1-0.2-0.4-0.1-0.4 0 0 0.2 0.2 0.1 0.3 0.2-0.1 0-0.2 0.1-0.3 0.2-0.1 0.2-0.3 0.1-0.4 0.1-0.2-0.1-0.2-0.3-0.4-0.4-0.1 0-0.1-0.2-0.3-0.1v-0.1q0.1 0 0.1 0c0.1-0.1-0.1-0.1-0.1-0.2 0.2-0.1 0.3 0.1 0.5 0.1 0 0.1 0 0 0-0.1h0.3c0 0.1 0.1 0.2 0.1 0.1 0 0 0.1-0.1 0.1-0.1 0.3 0.1 0.5 0.1 0.6-0.2 0.1 0 0 0.2 0.2 0.3 0 0-0.2 0-0.2 0.1 0.1 0 0.2 0 0.2 0 0.1 0 0.1-0.2 0.2-0.3 0 0 0-0.1-0.1-0.1v-0.1c0 0 0.1 0.1 0.1 0 0.2-0.1-0.1-0.1 0-0.3q0 0.1 0.1 0.2c0 0 0.1-0.1 0.1-0.1 0 0-0.1-0.1-0.1-0.1 0.1 0 0.2 0 0.2 0.1 0.2-0.2-0.2-0.4-0.2-0.6 0.1 0.1 0.2 0.1 0.2 0.2q0.1-0.1 0.1-0.1 0-0.1-0.1-0.1c0.3 0.1-0.1-0.1 0.1-0.1 0.1 0 0 0.2 0.1 0.1 0.2 0 0.3-0.2 0.2-0.4 0.1 0 0.2-0.1 0.2-0.1 0.1-0.1-0.1-0.1-0.1-0.2-0.1 0.1-0.2 0.1-0.2 0.2-0.3-0.1-0.5 0.3-0.8 0.2-0.2 0-0.4-0.2-0.4-0.2-0.3 0.2-0.2 0.6-0.1 0.9-0.1-0.1-0.2 0.1-0.2 0-0.1-0.5 0-1-0.1-1.5 0-0.1 0.1-0.1 0.1-0.2 0.1 0 0 0 0-0.1 0-0.4 0.5-0.3 0.9-0.3q0 0 0-0.1c0 0 0.1 0 0.1 0 0.1-0.2 0-0.4 0.3-0.5-0.2-0.1-0.5-0.1-0.7-0.2-0.2-0.2-0.4-0.4-0.4-0.6-0.2 0-0.2-0.2-0.3-0.3-0.2 0.2-0.2 0.5-0.5 0.6z"></path><path id="&lt;Path&gt;" class="s5" d="m615.1 26.6q-0.1 0-0.1 0.1 0.1 0.1 0.1 0.1 0.1-0.1 0.1-0.2c0 0-0.1 0-0.1 0z"></path><path id="&lt;Path&gt;" class="s5" d="m614.2 26.7q0.1 0 0.1 0.1c0.1-0.1 0.1-0.3 0-0.3-0.1 0-0.1 0.1-0.1 0.2z"></path><path id="&lt;Path&gt;" class="s5" d="m615.6 26.1c-0.1-0.2-0.1 0-0.2 0 0.1 0.1 0.1 0.1 0.2 0.1 0 0 0-0.1 0-0.1z"></path><path id="&lt;Path&gt;" class="s5" d="m613.5 28.9c0.1 0 0.2 0.1 0.3 0.1 0 0 0 0 0-0.1 0.1 0 0.1 0 0.2 0.1 0-0.1 0-0.1 0-0.1 0-0.1-0.1-0.1-0.1-0.2 0 0.1-0.2 0.1-0.2 0.2-0.2-0.2-0.5-0.3-0.7-0.2 0.2 0.1 0.3 0.3 0.5 0.2z"></path><path id="&lt;Path&gt;" class="s4" d="m612.1 26.8c-0.2-0.1-0.3-0.2-0.5-0.3 0.2-0.1 0.3-0.2 0.5-0.3-0.2-0.1-0.4-0.3-0.5-0.4 0.1-0.1 0.2 0 0.4 0 0.2-0.1 0.4-0.2 0.6-0.3 0.2 0 0.5 0.1 0.6 0.2 0.2 0.2 0.3 0.4 0.3 0.6 0 0-0.1-0.1-0.1-0.1-0.2 0.1 0 0.4-0.2 0.6-0.3 0.2-0.7 0.3-1.1 0z"></path><path id="&lt;Path&gt;" class="s5" d="m613 26.5q-0.1 0-0.1 0.1c-0.1 0.1 0.1 0.1 0.1 0.2 0-0.1 0.1-0.1 0.1-0.2 0 0-0.1 0-0.1-0.1z"></path><path id="&lt;Path&gt;" class="s5" d="m613.2 26c0 0.1 0 0.3 0.1 0.3 0.2-0.1 0-0.2 0-0.4 0 0-0.1 0-0.2 0 0 0-0.1 0 0 0.1 0 0 0 0 0.1 0z"></path><path id="&lt;Path&gt;" class="s5" d="m612.2 26.1c0 0 0.2 0 0.2 0 0-0.1-0.2-0.1-0.2 0z"></path><path id="&lt;Path&gt;" class="s5" d="m609.3 24.9c0.1 0.1 0 0.3 0 0.4 0 0.2 0.1 0.5 0.3 0.5 0.1 0 0.1 0.1 0.2 0.1 0.1 0 0.1-0.1 0.1-0.1 0.2 0 0.1 0.2 0.2 0.2q0 0 0.1 0c0 0.1 0 0.2 0 0.2 0.3-0.1 0.3-0.3 0.2-0.5 0.2 0 0.5 0 0.4-0.1 0-0.2-0.3 0-0.5-0.1-0.1-0.2-0.4-0.2-0.5-0.4 0 0 0-0.1 0-0.2 0 0-0.1-0.1-0.2-0.1 0.1-0.2 0.1-0.4 0-0.6 0-0.1-0.2-0.2-0.3-0.2 0 0-0.1 0 0 0.1-0.1-0.1-0.1-0.1-0.2-0.1-0.2 0.1-0.5 0.4-0.5 0.6q-0.3 1.3-0.2 2.5c0 0.3-0.2 0.7-0.3 1-0.1 0.2-0.3 0.3-0.3 0.6 0 0 0.1 0.1 0.1 0.1 0.3-0.1 0.3-0.4 0.5-0.4-0.1-0.2 0.1-0.4 0.1-0.6-0.1-0.1 0.2-0.1 0.2-0.1 0-0.8 0.1-1.5 0.1-2.2 0.1 0.1 0.2 0.2 0.3 0.1 0-0.1-0.1-0.1 0-0.1 0.2-0.1 0.2-0.4 0.2-0.6z"></path><path id="&lt;Path&gt;" class="s5" d="m609.1 26.2c-0.1-0.1-0.1 0.1-0.2 0.1 0.1 0.1-0.2 0.3 0 0.3 0.2 0 0.2-0.2 0.2-0.4z"></path><path id="&lt;Path&gt;" class="s5" d="m609 27.2c0-0.2 0.1-0.3 0.1-0.5-0.1-0.2-0.1 0.1-0.2 0.1 0.1 0.1-0.1 0.3 0 0.4 0.1 0.2 0.2 0 0.1 0z"></path><path id="&lt;Path&gt;" class="s5" d="m609 27.7c0-0.2 0.1-0.4-0.1-0.5-0.2 0.4-0.3 0.7-0.3 1 0 0.2 0.1 0 0.1-0.1 0.1-0.1 0.3-0.2 0.3-0.4z"></path><path id="&lt;Path&gt;" class="s5" d="m609.6 27c-0.1-0.2 0-0.4 0-0.5-0.1-0.1-0.2-0.1-0.3-0.1 0 0-0.1 0.1 0 0.1 0 0.1 0 0.1 0.1 0.1-0.2 0.1-0.1 0.3-0.2 0.4 0.1 0 0.1 0.1 0.1 0.1-0.2 0.1 0 0.3-0.2 0.3 0.2 0.2-0.1 0.4 0.1 0.4 0.1 0 0.1-0.3 0.3-0.4-0.1-0.1 0.1-0.3 0.1-0.4z"></path><path id="&lt;Path&gt;" class="s5" d="m609.8 26c0-0.2-0.1-0.1-0.2-0.2-0.1 0.2-0.2 0.4 0 0.5 0.1-0.1 0.2-0.1 0.2-0.3z"></path><path id="&lt;Path&gt;" class="s5" d="m610 27.1c0-0.1 0-0.2 0-0.2-0.1-0.1 0.2-0.1 0-0.2 0.2-0.1-0.1-0.1-0.1-0.2 0 0.1-0.1 0.2-0.1 0.2 0 0.2-0.2 0.3-0.1 0.4 0.1 0.2-0.3 0.5 0 0.6 0.1-0.1 0.2-0.3 0.1-0.5q0.1 0.1 0.1 0c0.1 0 0.1-0.1 0.1-0.1z"></path><path id="&lt;Path&gt;" class="s5" d="m610.1 27c0 0 0.1 0 0.1 0.1 0 0.1-0.2 0.4-0.1 0.3 0.4-0.1 0.5-0.7 0.2-0.9-0.1 0.1-0.1 0.3-0.2 0.5z"></path><path id="&lt;Path&gt;" class="s5" d="m610.8 26.8c-0.1-0.3 0.1-0.5-0.1-0.7q0 0 0 0c0 0 0 0-0.1 0-0.2 0.3-0.1 0.8-0.1 1.1 0.1 0.2 0.1 0 0.2 0 0-0.1 0-0.1-0.1-0.1 0.2 0 0.3-0.2 0.2-0.3z"></path><path id="&lt;Path&gt;" class="s5" d="m611.1 26.1q0.1 0 0.1-0.1 0-0.1-0.1-0.1c0 0.1-0.2 0.1-0.2 0.3q0.1 0.1 0.2 0c0 0 0-0.1 0-0.1z"></path><path id="&lt;Path&gt;" class="s5" d="m611.2 26.5c0-0.1 0.2-0.2 0-0.3-0.1 0.2-0.3 0.5-0.1 0.8 0-0.2 0.1-0.3 0.1-0.5z"></path><path id="&lt;Path&gt;" class="s5" d="m611.3 27.3c0-0.1 0-0.2 0-0.2 0-0.1-0.1-0.1-0.1-0.1-0.1 0.1-0.3 0.5 0 0.5 0.1 0 0-0.1 0.1-0.2z"></path><path id="&lt;Path&gt;" class="s5" d="m611.5 27.8c0 0 0.1-0.1 0.1-0.1 0 0-0.1-0.1-0.1 0-0.1 0.1-0.2 0.1-0.3 0.2 0.1 0.1 0.3 0.2 0.4 0.1 0.1-0.1 0-0.2-0.1-0.2z"></path><path id="&lt;Path&gt;" class="s5" d="m611.8 28.6c0.1 0 0.1-0.1 0.1-0.2-0.1-0.1-0.1-0.1-0.2-0.1-0.2 0.1 0 0.3 0.1 0.3z"></path><path id="&lt;Path&gt;" class="s5" d="m612.2 28.9c0-0.1 0-0.1-0.1-0.2-0.1 0.1-0.1 0.3 0 0.4 0.1 0 0.3 0 0.3-0.1 0 0-0.1 0-0.2-0.1z"></path><path id="&lt;Path&gt;" class="s5" d="m612.7 29.4c0.1 0 0.1 0 0.1-0.1q-0.1 0-0.2-0.1c-0.1 0.1 0.1 0.2-0.2 0.3 0.1 0.1 0.2 0.2 0.3-0.1z"></path><path id="&lt;Path&gt;" class="s5" d="m607.3 26.8c-0.2 0.1-0.3 0-0.4 0-0.1 0.2-0.2 0.5-0.3 0.6q0 0 0 0c0-0.1 0-0.1 0-0.1 0 0 0 0 0 0q0-0.1-0.1-0.1c-0.3 0.1-0.3 0.5-0.6 0.6 0.1-0.1 0-0.1 0-0.1-0.5 0-0.3 0.5-0.6 0.7 0-0.1-0.1-0.1-0.2-0.2-0.1 0.3-0.2 0.5-0.4 0.7 0-0.1 0.1-0.2 0.1-0.3 0 0-0.1-0.1-0.1 0-0.2 0.2-0.3 0.6-0.4 0.8-0.1 0.1 0.2-0.1 0-0.1 0 0 0-0.2 0.1-0.2-0.1-0.1-0.2-0.1-0.2-0.1-0.2 0.2-0.1 0.5-0.2 0.7 0 0.1-0.1 0-0.1 0 0.1 0-0.1-0.2 0-0.2 0 0 0-0.1-0.1 0q0 0.1-0.2 0.1c0.1 0.1 0.1 0.1 0.1 0.1-0.1 0.2-0.4 0.1-0.4 0.2 0 0 0 0.1 0 0.1q0 0.1-0.1 0.2c0-0.1 0.1-0.3 0-0.2-0.7 0.4-1.2 0.9-1.7 1.5-0.1 0.3-0.4 0.5-0.3 0.9 0 0 0.1 0 0.1 0.1 0 0.2 0 0.3 0.1 0.5q0.1-0.1 0.1-0.1c0 0.1 0 0.1 0.1 0.2 0.3 0.1 0.5 0.4 0.8 0.5q0.3 0 0.5 0.2c0.3 0.1 0.4 0.3 0.6 0.4 0.5 0.2 1 0.5 1.6 0.7 0.1 0-0.2 0-0.1 0.1 0.1 0.2 0.3-0.1 0.5 0-0.1 0-0.2 0.1-0.3 0.2 0.2 0.2 0.4-0.1 0.7-0.1 0 0 0.1 0.1 0.1 0.1-0.1 0-0.1 0-0.1 0.1 0.2 0.1 0.5 0 0.6 0.2 0 0 0.1-0.1 0.1-0.1 0.1 0.2-0.2 0.1-0.1 0.2 0.1 0.2 0.3 0 0.5 0 0.1 0 0.1 0.2 0.3 0.1 0.1 0-0.2 0.3 0 0.3 0.1 0 0.3-0.2 0.4-0.1 0.1 0.1-0.2 0.1-0.2 0.1 0.2 0.2 0.4 0 0.6 0 0.1-0.1-0.1 0.1 0 0.1q0.2 0.2 0.3 0c0 0.1 0 0.1 0.1 0.1 0.1 0.1 0.2 0.1 0.4 0 0.1-0.1-0.2 0.1 0 0.1q0 0.1-0.1 0.1c0.2 0.1 0.4 0 0.6 0.2 0.1 0 0.2-0.1 0.2-0.1 0.1-0.1 0.1 0 0.2 0 0 0.1-0.2 0.2-0.1 0.2 0.1 0.2 0.3 0 0.6 0.1-0.1 0.1-0.3 0-0.2 0.1q0.6 0.4 1.1 0.8c0.2 0.2 0.1 0.4 0.3 0.6 0 0.1 0 0.2 0 0.4 0 0 0.1 0.1 0.1 0.1-0.1 0.2 0 0.3 0 0.5 0 0.2 0.3 0.5 0.2 0.7 0 0.3-0.3 0.5-0.5 0.7-0.1 0.1 0.1 0.1 0.1 0.2q0 0 0.1-0.1c0 0.1-0.1 0.2 0 0.2 0.1-0.1 0.2 0 0.3 0 0.1 0 0.2-0.1 0.3-0.2 0.1-0.1 0.3-0.3 0.3-0.4-0.1-0.3 0.2-0.4 0.1-0.6 0-0.1 0.2 0 0.2-0.1 0 0-0.1 0-0.1-0.1 0.1-0.1 0.3-0.1 0.3 0 0.1-0.3 0.1-0.6-0.1-0.8q0.1 0 0.1 0c0.2-0.1-0.1-0.3 0.1-0.5 0 0-0.2-0.1-0.2-0.2q0 0.1 0.1 0c0.1 0 0.1 0 0.1-0.1-0.1 0-0.2-0.1-0.2-0.1-0.1-0.1 0.2-0.1 0.1-0.2q0-0.1-0.2-0.1c0.1-0.1 0.1-0.2 0-0.3 0.1 0 0.3 0.1 0.3-0.1 0-0.1-0.2 0-0.2-0.1-0.1-0.2 0.2 0 0.2-0.2 0 0-0.2-0.1-0.2-0.1 0-0.1 0.1-0.1 0.1-0.1 0.1 0.1 0.1 0.1 0.2 0.2 0 0 0-0.1 0-0.1q-0.1-0.2-0.3-0.3c0 0 0.1-0.1 0.1 0 0.1 0 0.1 0.1 0.2 0 0.1-0.1 0.3-0.1 0.1-0.3 0-0.1-0.1 0.2-0.2 0.1 0-0.1 0.1-0.3-0.1-0.3 0 0 0 0-0.1 0 0 0 0-0.1 0.1-0.1 0-0.1 0-0.1-0.1-0.1-0.4 0-0.7 0-1.1 0 0.1-0.2-0.2-0.2-0.3-0.2q0-0.1-0.1-0.1c0 0 0 0.1 0 0.1 0 0-0.1-0.1-0.1-0.1l-0.1 0.1c0 0 0-0.1 0-0.1 0 0 0 0 0 0 0-0.1 0-0.1-0.1-0.1-0.1 0.2-0.2 0-0.3 0.1-0.1-0.1-0.1-0.2-0.1-0.4 0 0-0.1-0.1-0.1 0q-0.1 0-0.1 0.1c-0.2-0.1-0.1-0.3-0.2-0.4-0.2 0.3-0.4 0-0.6-0.2-0.1 0-0.1 0.1-0.1 0.2 0-0.1-0.2-0.1-0.1-0.3 0 0 0-0.1-0.1-0.1-0.1 0.1 0 0.2-0.1 0.2 0-0.1 0.1-0.3 0-0.3-0.1 0-0.1 0.3-0.3 0.1 0.2-0.1 0.1-0.2 0-0.4 0-0.1-0.1 0.1-0.1 0.1v0.1c-0.1-0.2 0-0.4-0.2-0.4-0.1-0.1 0 0.1 0 0.2-0.1-0.1-0.1-0.3-0.1-0.5-0.1-0.2-0.2 0.1-0.3 0.1 0.1 0 0.1-0.1 0.1-0.1-0.1-0.1 0-0.2-0.1-0.3 0-0.1-0.1 0.1-0.1 0.1-0.1 0 0-0.1-0.1-0.2h-0.1c0 0 0-0.1-0.1-0.1 0 0-0.1 0.1-0.1 0.1 0 0 0-0.1-0.1-0.1-0.1 0 0 0.3-0.1 0.2-0.2-0.2-0.2-0.5-0.4-0.8-0.1 0.1-0.1 0.1-0.1 0.1-0.1-0.2-0.3-0.2-0.5-0.3q0 0 0 0c0 0-0.1-0.1-0.1-0.1q-0.4 0.1-0.8 0c0 0-0.2-0.2-0.3 0 0-0.1-0.2-0.1-0.1-0.1 0.4-0.2 0.9-0.3 1.2-0.6 0.1-0.1 0.3-0.4 0.1-0.5 0.2 0-0.1-0.2 0.1-0.2-0.1 0.2 0.1 0.2 0.2 0.2 0 0 0.1-0.2 0-0.3 0 0 0.1-0.1 0.1 0 0.2 0.2-0.1 0.4 0 0.6 0.2-0.2 0.4-0.4 0.3-0.7 0-0.1 0.1-0.1 0.1-0.1-0.1 0.1 0 0.3 0.1 0.3 0.2-0.1-0.1-0.3 0-0.5q0.1 0 0.1 0c0.1 0 0.1-0.2 0.2-0.2q0-0.1-0.1-0.1c0 0-0.1-0.1 0-0.1 0-0.1 0.1 0 0.1 0 0 0.2 0 0.5 0 0.7 0.2-0.2 0.2-0.4 0.2-0.5 0.1 0 0-0.1-0.1-0.1q0.1 0 0.2 0c0 0 0 0 0-0.1q0.1 0 0.1 0.1c0.1-0.1 0.1-0.1 0.2-0.2 0 0-0.2 0-0.1-0.1 0.1-0.1 0.1 0.2 0.2 0.1 0.1-0.2-0.1-0.5 0.2-0.6 0 0 0 0.1 0.1 0.1 0.1 0 0.1-0.2 0.2-0.2 0 0.1 0 0.3 0.1 0.4 0 0.2 0.1 0 0.1 0 0.1-0.4-0.1-0.9-0.4-0.9-0.2-0.1-0.4 0.3-0.6 0.4-0.1 0.1-0.4 0.1-0.5-0.1-0.1-0.2 0.3-0.5 0-0.6 0 0 0.1 0 0.1 0 0.2-0.1 0.1-0.3 0.4-0.4-0.1 0-0.1-0.1-0.1-0.1 0.2-0.3 0.1-0.5 0.2-0.8 0-0.1 0-0.2-0.1-0.3-0.1-0.2 0.1-0.2 0.2-0.3 0 0 0-0.1-0.1-0.2-0.3-0.2-0.4 0.4-0.6 0.4-0.1 0.1-0.2 0.1-0.3 0.2 0 0 0.1 0.1 0 0.1z"></path><path id="&lt;Path&gt;" class="s5" d="m609.1 28.7q0 0.1 0 0.1c0.1 0 0.1 0 0.1 0 0.1 0 0.1 0.2 0.2 0.2 0.2-0.3-0.3-0.6-0.5-0.9-0.2 0.3 0.1 0.4 0.2 0.6z"></path><path id="&lt;Path&gt;" class="s5" d="m609.4 28.5c0 0.2 0.1 0.2 0.2 0.4 0.1 0 0 0.2 0.1 0.3 0.2-0.3 0-0.5-0.2-0.7 0-0.1 0-0.1 0-0.2q-0.1-0.1-0.3-0.2c0-0.1 0 0-0.1 0 0 0.3 0.3 0.2 0.3 0.4z"></path><path id="&lt;Path&gt;" class="s5" d="m609.6 28.3c0 0.1 0.1 0.2 0.2 0.3 0.1-0.2 0-0.3-0.1-0.4q-0.1 0.1-0.1 0.1z"></path><path id="&lt;Path&gt;" class="s5" d="m610 28.1q-0.1-0.1-0.2-0.2c0 0-0.1 0-0.1 0.1 0.1 0.2 0.3 0.3 0.4 0.5q0-0.1 0.1-0.1c-0.1-0.1-0.1-0.2-0.2-0.3z"></path><path id="&lt;Path&gt;" class="s5" d="m610.2 28.1c0 0.1 0.2 0.1 0.2 0 0-0.1-0.2 0-0.2 0z"></path><path id="&lt;Path&gt;" class="s5" d="m609.6 29.8c0-0.1 0.1-0.3 0-0.4 0 0.1-0.2 0.1-0.2 0.2 0 0.1 0.1 0.1 0.2 0.2z"></path><path id="&lt;Path&gt;" class="s5" d="m609.3 29.8c0.1-0.1 0-0.3-0.1-0.4-0.1 0.1 0 0.3 0 0.4-0.1 0.1 0.1 0.1 0.1 0z"></path><path id="&lt;Path&gt;" class="s5" d="m609 29.7c0-0.1 0-0.1-0.1-0.1q0 0-0.1 0.1c0 0 0 0.1 0.1 0.1 0.1 0 0.1-0.1 0.1-0.1z"></path><path id="&lt;Path&gt;" class="s5" d="m608.6 30.2q0-0.2 0-0.3c0-0.1 0-0.1-0.1-0.1-0.2 0.1 0 0.2-0.1 0.4 0-0.1-0.1 0-0.1 0 0 0.1 0.1 0.1 0.1 0.2q0.1-0.1 0.2-0.2z"></path><path id="&lt;Path&gt;" class="s5" d="m608.9 30c0-0.1 0.1-0.2-0.1-0.3 0 0.2-0.2 0.4 0 0.6 0 0 0-0.2 0.1-0.3z"></path><path id="&lt;Path&gt;" class="s5" d="m608.1 30.2c0 0.1 0 0.1 0 0.1 0 0.1 0.1 0.1 0.2 0-0.1 0-0.1 0-0.1-0.1 0 0 0.1 0 0.1 0 0-0.2 0.1-0.3 0-0.4-0.1-0.2-0.1 0.1-0.2 0.1 0.2 0.1-0.1 0.2 0 0.3z"></path><path id="&lt;Path&gt;" class="s5" d="m608 30.7c0.1 0 0.1-0.1 0.1-0.2 0-0.1 0-0.1-0.1-0.1-0.1 0.1-0.1 0.1-0.1 0.2 0 0.1 0.1 0.1 0.1 0.1z"></path><path id="&lt;Path&gt;" class="s5" d="m607.5 30.8c0 0.1 0 0.1 0.1 0.1 0.1-0.1 0.2-0.3 0.1-0.5-0.1 0.1-0.2 0.3-0.2 0.4z"></path><path id="&lt;Path&gt;" class="s5" d="m608.9 30.5c0.2-0.1 0-0.1 0-0.2-0.1 0.1-0.1 0.1-0.1 0.2 0 0 0.1 0 0.1 0z"></path><path id="&lt;Path&gt;" class="s5" d="m609 30.2c0.1 0.1 0.1-0.1 0.2-0.1 0 0-0.1-0.1-0.1-0.1-0.1 0-0.1 0.1-0.1 0.2z"></path><path id="&lt;Path&gt;" class="s5" d="m613 30.2c0.2-0.1 0.1-0.4 0-0.4-0.2 0-0.4 0.2-0.4 0.4 0.1 0.1 0.2 0.1 0.2 0 0 0 0 0 0 0 0-0.2 0.1 0.1 0.2 0z"></path><path id="&lt;Path&gt;" class="s5" d="m609.6 28.2c0.1 0 0.1-0.1 0.1-0.1-0.1-0.1-0.2-0.2-0.3-0.2-0.2 0 0.2 0.2 0.1 0.3-0.1 0 0.1 0.1 0.1 0z"></path><path id="&lt;Path&gt;" class="s5" d="m615.4 28.9c0.1-0.2-0.1-0.2-0.1-0.2 0 0.1-0.3 0.3-0.1 0.4 0.2 0.1 0.2-0.1 0.2-0.2z"></path><path id="&lt;Path&gt;" class="s5" d="m615.8 28.4c0 0.1 0.1 0.2 0.1 0.2 0.2-0.1 0.1-0.4 0.1-0.4-0.2-0.2-0.2 0.2-0.2 0.2z"></path><path id="&lt;Path&gt;" class="s5" d="m615.6 28.6c0-0.1 0.1-0.2 0-0.3q-0.1 0.1-0.2 0.2c0 0.1 0.1 0.1 0.2 0.1z"></path><path id="&lt;Path&gt;" class="s5" d="m615.6 28.9c-0.1 0-0.1 0.1 0 0.1 0.1 0 0.2-0.1 0.1-0.2 0-0.2-0.1 0-0.1 0.1z"></path><path id="&lt;Path&gt;" class="s5" d="m616.6 28.6c0.1 0 0.1-0.1 0.2-0.2-0.2-0.1-0.4 0-0.5 0.2 0 0.1 0.2 0 0.3 0z"></path><path id="&lt;Path&gt;" class="s5" d="m616.4 28.2q0.1 0 0.1-0.1 0 0-0.1 0c-0.1 0-0.1 0.1-0.1 0.1 0 0 0.1 0 0.1 0z"></path><path id="&lt;Path&gt;" class="s5" d="m616.9 28.1c0 0-0.1 0-0.1 0 0.1 0.1 0.2 0.1 0.3 0q-0.1 0-0.2 0z"></path><path id="&lt;Path&gt;" class="s5" d="m616.4 29.1c0.2 0 0-0.1 0-0.1 0 0-0.1 0-0.1 0 0 0 0 0 0 0-0.1 0-0.1 0-0.1 0.1 0 0.1 0.2 0.1 0.2 0z"></path><path id="&lt;Path&gt;" class="s5" d="m616 29.4q0.1 0 0.2-0.1c0-0.1-0.2 0-0.3 0 0 0-0.1 0-0.1 0.1q0.1 0.1 0.1 0.1c0.1 0 0.1 0 0.1-0.1z"></path><path id="&lt;Path&gt;" class="s5" d="m614.2 30.5q0 0.1 0 0.1c0.1 0.1 0.2 0 0.2-0.1 0.1-0.1-0.1-0.2-0.2-0.3-0.1 0.1 0 0.2 0 0.3z"></path><path id="&lt;Path&gt;" class="s5" d="m613.9 30.3c0 0-0.1 0-0.1 0 0 0.1 0.1 0.2 0.2 0.2 0 0 0.1-0.1 0.1-0.1 0 0-0.1-0.1-0.2-0.1z"></path><path id="&lt;Path&gt;" class="s5" d="m613.4 30.9c0 0 0.1 0 0-0.1q0-0.1-0.1 0 0.1-0.1 0.1-0.2c0.1 0 0-0.1 0-0.1-0.3 0.1-0.3 0.5-0.1 0.6 0 0-0.1 0-0.1 0.1 0 0.1 0.1 0 0.2 0 0.1 0 0-0.2 0-0.3z"></path><path id="&lt;Path&gt;" class="s5" d="m612.9 31.4c0.2 0 0.1-0.3 0-0.3-0.2 0.1-0.1 0.3 0 0.3z"></path><path id="&lt;Path&gt;" class="s5" d="m613.3 31.6c0-0.1-0.1-0.1-0.1-0.1-0.1-0.1-0.1 0-0.1 0 0 0.1 0 0.2 0.1 0.3 0.1 0 0.2 0 0.1-0.2z"></path><path id="&lt;Path&gt;" class="s5" d="m612.8 32.1c0 0 0.1 0 0.1 0 0-0.1 0-0.2-0.1-0.2 0 0 0 0.1-0.1 0 0 0-0.1 0-0.1 0-0.3 0.1-0.6 0.4-0.4 0.6 0.2 0.3 0.3-0.2 0.2-0.4h0.2c-0.1 0.1-0.1 0.3 0 0.3 0.2 0 0-0.2 0.2-0.3z"></path><path id="&lt;Path&gt;" class="s5" d="m613 32.5c0 0.1 0.2 0.1 0.3 0.1 0.2 0.1 0-0.1 0.1-0.2 0 0 0-0.1-0.1-0.1q0.1 0 0.1-0.1c-0.2-0.2-0.5-0.1-0.6 0.1 0 0.1 0.3-0.1 0.2 0.2z"></path><path id="&lt;Path&gt;" class="s5" d="m612.8 32.8c0-0.2-0.1-0.3-0.2-0.4-0.2 0.2 0.2 0.5-0.2 0.6 0.2 0.2 0.4 0.1 0.7 0.1 0 0 0.1 0 0-0.1-0.1-0.1-0.2-0.1-0.3-0.2z"></path><path id="&lt;Path&gt;" class="s5" d="m613.8 32.8c0 0.2 0.1 0.3 0.2 0.4 0.1 0 0.1 0 0.1-0.1-0.1-0.2-0.2-0.5-0.4-0.7-0.1 0.2 0 0.3 0.1 0.4z"></path><path id="&lt;Path&gt;" class="s5" d="m614.1 33.6q0-0.1 0-0.2c-0.1 0-0.1 0-0.1 0q0-0.2-0.2-0.3c-0.2 0.4 0.3 0.7 0.4 1.1 0.1-0.1 0.2-0.1 0.2-0.2q-0.2-0.2-0.3-0.4z"></path><path id="&lt;Path&gt;" class="s5" d="m614.5 33.8c0.2 0.4 0.5 0.6 0.8 0.9 0.2 0.1 0.3 0.4 0.6 0.5-0.1 0.1-0.1 0.2-0.1 0.3 0 0.1 0.2 0.2 0.2 0.1q0 0 0-0.1h0.2c0 0.1 0 0.1 0.1 0.1 0 0.1 0.1 0 0.1 0-0.1-0.2 0-0.5-0.2-0.6-0.1 0-0.3-0.1-0.4-0.1-0.5-0.4-0.9-0.9-1.4-1.3 0-0.1-0.1 0-0.1 0.1-0.1 0.1 0.1 0 0.2 0.1z"></path><path id="&lt;Path&gt;" class="s5" d="m614.4 34.5c0.2 0.1 0.2 0.4 0.3 0.5 0.2-0.3 0-0.7-0.3-0.9-0.2-0.1-0.1 0.3 0 0.4z"></path><path id="&lt;Path&gt;" class="s5" d="m614.2 33.3c0 0 0-0.2-0.1-0.1-0.2 0.1 0.1 0.4 0.2 0.4 0.1 0 0-0.2-0.1-0.3z"></path><path id="&lt;Path&gt;" class="s5" d="m614.9 35c0 0-0.1 0-0.1-0.1 0 0-0.1 0-0.1 0.1-0.1 0.2 0 0.3 0.2 0.3 0.1 0 0-0.2 0-0.3z"></path><path id="&lt;Path&gt;" class="s5" d="m614.9 33.3c0.1 0.1 0.2 0.1 0.3 0-0.1-0.1-0.3-0.2-0.4-0.2q-0.1 0-0.1 0.1c0 0.1 0.2 0 0.2 0.1z"></path><path id="&lt;Path&gt;" class="s5" d="m614.7 33.1c0.1 0-0.1-0.1-0.1-0.1-0.1 0-0.2-0.1-0.3 0 0.1 0.1 0.3 0.2 0.4 0.1z"></path><path id="&lt;Path&gt;" class="s5" d="m615.6 33.7c0.1-0.1 0.2 0.2 0.2 0 0-0.1-0.1-0.1-0.2-0.2q-0.1 0-0.1 0.1c0 0 0.1 0.1 0.1 0.1z"></path><path id="&lt;Path&gt;" class="s5" d="m614.5 32q0-0.1-0.1-0.1c-0.1 0-0.1 0.1-0.2 0.1 0.1 0 0.1 0.2 0.2 0.2 0.1 0 0.1-0.1 0.1-0.2z"></path><path id="&lt;Path&gt;" class="s5" d="m614.5 30.9q0 0 0-0.1 0-0.1-0.1 0c-0.2 0-0.2 0.2-0.2 0.2 0 0.2 0.3 0.1 0.3-0.1z"></path><path id="&lt;Path&gt;" class="s5" d="m614.2 31.2q0-0.1-0.1-0.1c-0.2-0.1-0.2 0.1-0.1 0.3 0 0.1 0.2-0.1 0.2-0.2z"></path><path id="&lt;Path&gt;" class="s5" d="m616.7 35.1c-0.1-0.1-0.1-0.1-0.2 0-0.1 0-0.1 0-0.1 0.1 0.2 0 0.3 0.2 0.4 0.1 0 0 0.1 0 0.1-0.1-0.1 0-0.2 0-0.2-0.1z"></path><path id="&lt;Path&gt;" class="s5" d="m616.3 36c0 0 0 0 0-0.1 0 0 0 0 0 0 0 0 0-0.1 0-0.1 0-0.1-0.2 0-0.2-0.1-0.1 0.1-0.2 0.2-0.2 0.3 0.1 0.1 0.3 0.3 0.4 0.1 0 0-0.1 0 0-0.1z"></path><path id="&lt;Path&gt;" class="s5" d="m616.6 36.2q0.1 0 0-0.1c0-0.1-0.1-0.1-0.2-0.2 0 0.1 0 0.1 0 0.2q0 0.1 0.2 0.1z"></path><path id="&lt;Path&gt;" class="s5" d="m616.7 35.9q0.1 0.1 0.3 0.2c0 0 0 0 0.1 0 0-0.3-0.2-0.5-0.4-0.5-0.2 0-0.1 0.2 0 0.3z"></path><path id="&lt;Path&gt;" class="s5" d="m617.3 35.9c0.1 0.1 0.2-0.1 0.3-0.1-0.2-0.1-0.2-0.3-0.5-0.4-0.1 0-0.1 0.2-0.1 0.3 0.1 0.1 0.2 0.1 0.3 0.2z"></path><path id="&lt;Path&gt;" class="s5" d="m616.9 36.7c0.1 0.1 0.3 0 0.3-0.1-0.1-0.1-0.1-0.3-0.3-0.2-0.1 0-0.1 0.1-0.2 0.1 0.1 0.1 0.1 0.1 0.2 0.2z"></path><path id="&lt;Path&gt;" class="s5" d="m617.4 36.2c0-0.1-0.1-0.1-0.1 0 0 0.1 0 0.2 0.1 0.3q0.1 0 0.1-0.1c0-0.1 0-0.1-0.1-0.2z"></path><path id="&lt;Path&gt;" class="s5" d="m617.8 36.5c0.1 0 0.2 0 0.3 0.1 0.1 0 0.1-0.2 0.1-0.3-0.1-0.2-0.5-0.4-0.6-0.1 0 0 0.2 0.1 0.2 0.3z"></path><path id="&lt;Path&gt;" class="s5" d="m618.5 36.6c0.1 0.1 0.2 0 0.3 0.1 0.1-0.1 0-0.3-0.1-0.3-0.2-0.1-0.2 0.1-0.2 0.2z"></path><path id="&lt;Path&gt;" class="s5" d="m618.4 36.8c-0.1-0.1-0.1 0.1-0.2 0.1 0.1 0.1 0.1 0.2 0.2 0.2 0.2 0.1 0.2-0.1 0.2-0.2-0.1-0.1-0.2-0.1-0.2-0.1z"></path><path id="&lt;Path&gt;" class="s5" d="m617.8 37q0 0.1 0.1 0.1c0.1-0.1 0-0.2 0-0.2 0-0.3-0.2-0.2-0.3-0.2-0.3 0.1 0.1 0.2 0.2 0.3z"></path><path id="&lt;Path&gt;" class="s5" d="m617.5 37.1q-0.1-0.1-0.3-0.2c-0.1 0-0.1 0.1-0.1 0.2 0.1 0.1 0.2 0.3 0.4 0.2 0.1 0 0-0.1 0-0.2z"></path><path id="&lt;Path&gt;" class="s5" d="m618.3 37.4c-0.2 0-0.6-0.3-0.5 0 0 0.1 0.3 0.1 0.5 0.2 0 0 0.1-0.1 0-0.2z"></path><path id="&lt;Path&gt;" class="s5" d="m618.8 37.7c0.1 0.1 0.2-0.1 0.2-0.1 0.1-0.2-0.2-0.2-0.2-0.3-0.1 0-0.2 0-0.2 0.1 0 0-0.1 0.1 0 0.1 0 0 0.1 0 0.1 0 0 0.1 0.1 0.1 0.1 0.2z"></path><path id="&lt;Path&gt;" class="s5" d="m619.3 37.4c0.1 0 0.1 0 0.1 0.1 0.2-0.3 0-0.5-0.2-0.5-0.2 0.1-0.1 0.4 0.1 0.4z"></path><path id="&lt;Path&gt;" class="s4" d="m617.1 38.2q-0.1-0.4 0-0.8 0.2 0.6 0.2 1.2c0 0 0.1 0 0.1 0.1 0 0.2 0.1 0.3 0 0.5 0-0.1-0.2-0.2-0.1-0.3 0.1-0.1-0.2-0.3 0-0.4-0.1-0.1-0.1-0.2-0.2-0.3z"></path><path id="&lt;Path&gt;" class="s4" d="m603.8 31.8c0 0-0.2 0.1-0.2 0 0.1-0.1 0.3 0 0.3-0.2 0 0-0.1 0-0.1 0 0 0 0.1-0.1 0.1-0.1 0 0-0.1 0-0.1 0 0.1 0 0.2-0.1 0.3-0.1q0 0.1 0 0.1c0.1 0.1 0.2 0.1 0.2 0 0 0 0-0.2-0.1-0.2 0-0.1 0.1-0.1 0.1-0.1 0.1 0.1 0 0.1 0 0.2 0 0 0.1 0 0.1 0.1 0 0.1-0.2 0-0.2 0.2 0 0 0 0.1 0.1 0.1-0.1-0.1-0.1-0.1-0.2-0.1-0.1 0 0 0.2-0.1 0.2 0.4 0.1 0.4 0.5 0.6 0.8h-0.1c0-0.1 0-0.3-0.1-0.3-0.1-0.3-0.4-0.4-0.6-0.6z"></path><path id="&lt;Path&gt;" class="s4" d="m606.2 30.2c0.1 0 0.1-0.1 0.1-0.1 0-0.1-0.1-0.1 0-0.2 0.2 0 0 0.3 0.1 0.2 0.2-0.1 0.3-0.3 0.4-0.5 0.1 0-0.1 0.1 0 0.1 0 0.1 0 0.1 0.1 0.1 0 0 0.1-0.1 0.1-0.2q0.1 0.1 0.2 0.2 0.2-0.3 0.2-0.6c0 0.1 0 0.1 0.1 0.1-0.1 0.2-0.1 0.4-0.3 0.6-0.1 0.1-0.1 0.2-0.3 0-0.1 0.1-0.1 0.3-0.2 0.4 0-0.1 0-0.1 0-0.1 0-0.1-0.1-0.1-0.1-0.1-0.1 0.1-0.1 0.2-0.1 0.3-0.1 0-0.2 0-0.2 0-0.1-0.1 0 0.2-0.2 0.2 0.1-0.2 0.1-0.3 0.1-0.4z"></path><path id="&lt;Path&gt;" class="s4" d="m606.3 31.1q0.1 0 0.1 0.1c-0.1 0-0.2 0-0.2-0.1-0.2 0.1-0.1 0.3-0.4 0.3 0.1-0.2 0.2-0.2 0.3-0.2 0.2-0.1 0.1-0.4 0.3-0.3 0 0-0.2 0.1-0.1 0.2z"></path><path id="&lt;Path&gt;" class="s4" d="m605.6 31.5c0 0 0.3 0.1 0 0.1-0.2 0 0.1-0.2-0.1-0.2h0.1q-0.1 0 0 0.1z"></path><path id="&lt;Path&gt;" class="s4" d="m605.1 31.8c-0.1-0.1 0.1-0.2 0.1-0.2 0.1 0-0.1 0.1 0 0.2 0 0-0.1 0-0.1 0z"></path><path id="&lt;Path&gt;" class="s4" d="m611.9 36.6c0 0 0-0.2-0.1-0.3-0.1 0-0.2 0.1-0.2 0.1 0.1 0.1 0 0.3 0.3 0.2z"></path><path id="&lt;Path&gt;" class="s4" d="m611.6 36.7c0 0 0 0.1 0 0.1q0.2-0.1 0-0.2c0 0 0 0.1 0 0.1z"></path><path id="&lt;Path&gt;" class="s4" d="m611.8 36.9c-0.2-0.2-0.5-0.1-0.3-0.3 0 0 0 0 0.1 0 0.1-0.1 0-0.2 0-0.3 0.1 0.1 0.3 0 0.3 0.2 0.1 0.3 0.2 0.5 0 0.7 0-0.1 0-0.2 0-0.2-0.1-0.1-0.1 0-0.1-0.1z"></path><path id="&lt;Path&gt;" class="s4" d="m613.3 27.8c0 0 0-0.1 0-0.1q-0.1 0-0.1 0.1z"></path><path id="&lt;Path&gt;" class="s4" d="m613.3 28q-0.1-0.1-0.2-0.1c0-0.1-0.2-0.3 0-0.3 0.2-0.1 0.1 0.3 0.3 0.2 0 0.2 0.2 0.2 0.3 0.3q0.3-0.3 0.7-0.6c-0.1 0.2-0.2 0.3-0.2 0.4-0.2-0.1-0.2 0.3-0.4 0.3-0.2 0.1-0.4-0.1-0.5-0.2z"></path><path id="&lt;Path&gt;" class="s4" d="m604.3 21.5c-0.1 0-0.1 0-0.2 0 0.1 0.1 0.1 0.2 0.2 0.2 0 0 0.1-0.1 0.1-0.1q-0.1-0.1-0.1-0.1z"></path><path id="&lt;Path&gt;" class="s4" d="m604.1 21.3c-0.1 0-0.1 0.2 0 0.2 0.1 0 0.1-0.2 0-0.2z"></path><path id="&lt;Path&gt;" class="s4" d="m604.1 21.1q0 0 0-0.1c0.1 0 0.1 0.1 0.1 0.1-0.1 0.4 0.3 0.4 0.5 0.6-0.2-0.1-0.4-0.2-0.4 0 0 0 0 0.1 0.1 0.1-0.1 0.2-0.1-0.1-0.2 0q0-0.2-0.1-0.3c-0.1 0-0.1 0.1-0.1 0.1 0 0.1 0.1 0.2 0.1 0.3-0.1 0-0.2-0.2-0.3-0.3q0.1 0 0.1 0 0.1 0 0.1-0.1c0-0.1-0.1-0.1-0.1-0.1 0.2 0 0.3-0.2 0.2-0.3z"></path><path id="&lt;Path&gt;" class="s4" d="m606.8 20.2c0 0 0.1-0.1 0.1-0.1v0.3c0-0.1-0.1 0-0.1-0.2z"></path><path id="&lt;Path&gt;" class="s4" d="m606.6 20.5q-0.1-0.2 0.1-0.3c0 0.1 0 0.2 0 0.3 0 0-0.1 0-0.1 0z"></path><path id="&lt;Path&gt;" class="s4" d="m605.7 21.2c0.2-0.1-0.1-0.1 0-0.2q0-0.1 0.1-0.1c-0.1 0.1 0.1 0.2 0 0.2q0 0.1-0.1 0.1z"></path><path id="&lt;Path&gt;" class="s4" d="m610.3 17.8q0 0.1 0 0c-0.1 0-0.1 0-0.1 0-0.1 0.1-0.1 0.3-0.2 0.3-0.3 0.1-0.5 0.3-0.7 0.5 0-0.1 0.1-0.1 0-0.2 0.1-0.1 0.3-0.2 0.3-0.4h0.1c0 0 0 0.1 0 0.1 0.2-0.1 0.1-0.3 0.2-0.4 0.1 0.1 0 0.3 0.1 0.2 0.2 0 0.1-0.3 0.2-0.5 0.1-0.2 0.1 0.1 0.2 0 0.1-0.1-0.1-0.1 0-0.2q0.1-0.1 0.3 0c-0.1 0.1-0.2 0.4-0.2 0.6z"></path><path id="&lt;Path&gt;" class="s4" d="m609.4 19.2c0 0.2-0.1-0.1-0.1-0.1q0 0.1 0.1 0 0-0.1-0.1-0.1c0.1 0 0.1-0.1 0.1-0.1 0 0.1 0 0.2 0 0.3z"></path><path id="&lt;Path&gt;" class="s4" d="m609.1 19.2c-0.1-0.1 0 0.4-0.1 0.1-0.1 0 0-0.1 0-0.1 0 0-0.1 0 0 0 0-0.2 0.1 0 0.1 0z"></path><path id="&lt;Path&gt;" class="s4" d="m608.8 19.3c0 0 0 0.1 0 0.1h-0.1q0 0 0-0.1c0 0 0 0 0 0 0 0 0-0.1 0-0.1 0 0 0 0 0-0.1q0.1 0 0.1 0.1c0 0 0 0.1 0 0.1z"></path><path id="&lt;Path&gt;" class="s4" d="m608.4 19.6q-0.2-0.1 0-0.2z"></path><path id="&lt;Path&gt;" class="s4" d="m609.6 19.1c0-0.1 0-0.2 0.1-0.3 0.1 0.1 0 0.2 0.1 0.3q-0.1 0-0.2 0z"></path><path id="&lt;Path&gt;" class="s4" d="m609.9 18.8q0-0.1 0-0.2c0.1-0.1 0.1 0.2 0.2 0.1-0.1 0-0.1 0-0.1 0 0 0.1 0 0.1 0 0.1 0 0 0 0 0 0.1q0 0 0.1 0c0 0-0.1 0-0.1 0.1 0-0.1-0.1-0.1-0.1-0.2z"></path><path id="&lt;Path&gt;" class="s4" d="m610.2 18.6c0-0.1 0-0.1 0-0.2 0.2 0.1 0.1 0.3 0.1 0.5 0-0.2-0.2-0.2-0.1-0.3z"></path><path id="&lt;Path&gt;" class="s4" d="m612.1 15.3c0 0-0.1 0-0.1-0.1 0-0.1 0.1 0 0.2 0 0 0.2 0.2 0.2 0.2 0.3 0 0.1-0.2 0.2-0.3 0.3-0.1-0.2 0.1-0.1 0.1-0.1-0.2-0.2-0.1-0.2-0.1-0.4z"></path><path id="&lt;Path&gt;" class="s4" d="m612.7 15.4q0 0.1 0.1 0.1h-0.2q0-0.2 0-0.3c0.1-0.1 0.1 0 0.2 0-0.1 0.1-0.1 0.1-0.1 0.2z"></path><path id="&lt;Path&gt;" class="s4" d="m613.8 20.7c0 0.2 0.1 0.1 0.1 0.1 0.1 0 0.1 0.1 0.1 0.1-0.2 0-0.3-0.2-0.4-0.3 0.1 0 0.2 0.1 0.2 0 0.1-0.2-0.1-0.2-0.2-0.2 0 0 0.1-0.1 0.1-0.1 0.1 0 0.2 0.1 0.3 0.3q-0.1 0-0.2 0-0.1 0 0 0.1z"></path><path id="&lt;Path&gt;" class="s4" d="m613.8 20c-0.1 0 0 0 0-0.1-0.1 0.1 0.2 0.1 0.1 0.3q-0.1-0.1-0.1-0.2z"></path><path id="&lt;Path&gt;" class="s4" d="m613.7 19.6c0 0-0.1-0.1-0.1 0q0 0 0.1-0.1c0 0.1 0 0.2 0.1 0.2q0 0 0.1 0 0 0.1 0.1 0.1c-0.2 0-0.2-0.1-0.3-0.2z"></path><path id="&lt;Path&gt;" class="s5" d="m619.2 29c-0.1 0.2-0.1 0.5-0.3 0.4-0.2 0-0.3-0.1-0.5-0.2-0.1 0.1-0.3 0-0.5 0 0.1-0.2 0.5 0 0.5-0.2-0.1-0.2-0.3-0.1-0.5 0 0-0.1 0-0.1 0-0.1 0.2-0.1 0.4 0 0.5-0.2 0 0-0.1 0-0.1-0.1-0.1 0.1-0.1 0.1-0.2 0.1-0.1-0.2 0.2-0.1 0.1-0.2-0.1-0.2-0.3-0.2-0.5-0.1-0.1 0-0.1-0.1-0.1-0.1 0.1-0.1 0.1-0.1 0.1-0.2-0.2-0.1-0.4 0-0.5 0.1 0.1 0.1 0 0.2-0.1 0.3q0.2 0.1 0.3 0.2c-0.2 0-0.2 0.1-0.2 0.3 0 0-0.2-0.1-0.2 0v0.2c0 0.1 0.1 0.1 0.1 0.1 0.1-0.1 0.2-0.1 0.2-0.2 0 0 0.2 0 0.1 0-0.2 0.1-0.1 0.4-0.4 0.4 0 0 0.1 0.1 0.1 0.1 0.2 0 0.2-0.3 0.5-0.2-0.2 0.1-0.7 0.3-0.3 0.5 0 0.1 0 0 0.1 0-0.1 0.3-0.4 0.4-0.6 0.6 0.2 0.2 0.3-0.2 0.6-0.1 0 0 0 0.1 0 0.1-0.1 0.1-0.1 0-0.1 0-0.1 0.1-0.3 0.1-0.4 0.2q-0.1 0.1 0.1 0.1c0.1 0.1 0.3-0.1 0.5 0-0.1 0-0.1 0.1-0.1 0.1-0.3 0-0.5 0-0.8 0.1 0.3 0.3 0.7 0 1 0.1 0.1 0 0.2-0.2 0.3-0.2 0.1 0 0.1 0 0.1 0.1-0.1 0.2-0.3 0.1-0.5 0.1-0.1 0.1-0.3 0.2-0.5 0.1 0 0-0.1 0 0 0.1 0.1 0.2 0.4 0.1 0.5 0.1 0.3-0.1 0.6-0.1 0.9-0.2-0.2 0.3-0.6 0.1-0.8 0.3 0.3 0.2 0.7 0 1.1 0 0 0-0.2 0-0.2 0.2-0.2 0-0.5 0-0.7 0.1 0.5 0.2 0.9-0.1 1.3-0.1-0.1 0.1-0.4 0.1-0.4 0.2 0.1 0.3 0.5 0.1 0.7 0-0.2 0.2-0.6 0.1-0.5 0.3 0 0.2 0.2 0 0.3-0.1q0 0.1 0.1 0.1c0.1 0 0.2-0.1 0.2-0.1 0 0.2 0.2 0.3 0.4 0.2-0.1 0.1-0.3 0.2-0.3 0.2 0.2 0.4 0.7-0.2 1-0.1 0.1 0.1-0.2 0.1-0.2 0.2 0 0.2 0.3 0 0.4 0.1 0.1 0.1-0.2 0.1-0.2 0.1 0.5 0.3 1 0.2 1.5 0.3 0.2 0.1 0.3 0.2 0.5 0.3 0.1 0 0.3 0 0.4 0 0.1 0 0-0.2 0.1-0.3 0.2 0 0 0.2 0.1 0.3 0 0.1 0.2 0.1 0.3 0.2 0 0 0.2 0 0.2 0-0.1-0.2 0.1-0.4-0.1-0.5 0.1 0 0.2 0.1 0.3 0.1 0.1-0.1-0.1-0.1 0-0.2 0.1-0.1 0.1 0.1 0.2 0.1 0 0 0-0.1 0-0.1 0.1-0.2 0.1 0.1 0.2 0 0.1 0 0.1-0.2 0.1-0.2 0.1 0 0.2 0.4 0.3 0.2-0.1-0.1 0-0.2-0.1-0.3 0.2-0.1 0.1 0.1 0.2 0.1q0 0 0 0c0 0.1 0 0.1 0.1 0.1 0.1-0.1 0-0.2-0.1-0.3q0.1 0 0.1-0.1c0-0.1-0.2 0-0.1-0.1 0 0 0.1-0.1 0.1 0 0.2-0.1 0-0.4-0.1-0.5 0 0 0.1-0.1 0.1-0.1 0 0.1 0.1 0.1 0.1 0.1 0 0.1 0.1 0 0.1 0-0.1-0.3-0.2-0.7-0.6-0.5 0.1 0 0.2 0.2 0.2 0.3 0 0-0.1 0-0.1 0q-0.1-0.1-0.2 0c0 0.1 0 0.2 0.1 0.2 0 0 0 0 0.1 0 0.1 0.1 0 0.1 0 0.2-0.1-0.1-0.1-0.2-0.2-0.3 0-0.1 0.1-0.2 0.1-0.2 0-0.2 0.1-0.4 0-0.6 0.2 0.1 0.4 0.5 0.5 0.2 0.1 0-0.2-0.1-0.2-0.3 0 0 0.1 0 0.1 0q0.2 0.1 0 0.2c0.1 0.1 0.3 0.1 0.3 0.2 0.2-0.3-0.2-0.4-0.2-0.7-0.1-0.2-0.4-0.3-0.5-0.5 0.2 0.1 0.3 0.2 0.4 0.3 0.1 0 0.1 0 0.1-0.1 0-0.3-0.2-0.4-0.5-0.6 0.1 0 0-0.2-0.1-0.2 0.3-0.1 0.3 0.2 0.5 0.4 0 0 0.1 0 0.1 0 0.2-0.1-0.1-0.2 0.1-0.3-0.2 0-0.2-0.1-0.3-0.2 0-0.2-0.3-0.3-0.2-0.5 0-0.2 0.1 0 0.1 0 0 0.3 0.3 0.4 0.4 0.7 0.1-0.1 0-0.2 0.1-0.2-0.2-0.3-0.2-0.6-0.4-0.8-0.1-0.2-0.2-0.3-0.3-0.4 0.4-0.1 0.2 0.5 0.5 0.5 0.1 0 0-0.2 0-0.3 0-0.1-0.1 0-0.1-0.1 0-0.4-0.3-0.7-0.6-1 0.3-0.1 0.3 0.3 0.4 0.3 0.1 0 0.2-0.1 0.1-0.1-0.2-0.2-0.2-0.4-0.4-0.6-0.1-0.1 0.1 0 0.1-0.1-0.1 0.3 0.2 0.2 0.3 0.3q0.1 0 0.1-0.1c-0.2-0.2-0.5-0.3-0.5-0.6 0.1 0.1 0.2 0.3 0.3 0.3 0.1 0 0.1-0.1 0-0.2-0.2-0.3-0.4-0.5-0.8-0.6v-0.1c0 0.1 0.1 0.1 0.2 0 0 0 0 0.2 0.1 0.2 0.1-0.1 0.2 0 0.3 0.1 0.1 0.1 0.3 0.3 0.4 0.4 0.2-0.3-0.3-0.3-0.3-0.6 0-0.2-0.3-0.3-0.4-0.5-0.1-0.1-0.3-0.2-0.4-0.2-0.2 0-0.1-0.1-0.2-0.2 0.2 0 0.3 0.2 0.5 0.2 0.1 0 0.1-0.1 0.1-0.1-0.1-0.2-0.4-0.1-0.3-0.3 0.1 0 0.1 0 0.2 0.1 0 0 0.1 0 0.1-0.1-0.1-0.2-0.4-0.4-0.7-0.4 0 0 0.1-0.1 0-0.1 0.2-0.1 0.3-0.1 0.4 0.1 0.1 0 0.2-0.1 0.1-0.1 0-0.1-0.2-0.1-0.2-0.2 0-0.1 0.3-0.1 0.2-0.1-0.1-0.2-0.4-0.6-0.7-0.4q0-0.1 0.1-0.1-0.1 0-0.1-0.1c0.2 0.1 0.4 0.1 0.6 0.2 0 0.1 0.1-0.1 0-0.1-0.1-0.1-0.3-0.3-0.4-0.4 0.1 0 0.3 0.1 0.4 0.1 0.1 0.1 0-0.1 0-0.1 0-0.1-0.1-0.2-0.2-0.3 0-0.2-0.2-0.1-0.3-0.3 0.2 0 0.3 0.1 0.5 0.3 0 0 0.1-0.1 0-0.1q-0.1-0.1-0.1-0.2c0.1 0 0-0.2 0.1-0.2 0 0-0.1-0.1 0-0.1 0 0.1 0.1 0.1 0.1 0 0.2-0.1-0.2-0.2-0.1-0.4q0.2 0.2 0.3 0c-0.1 0-0.2-0.1-0.2-0.1 0.1-0.2 0.2 0.1 0.2 0.1 0.2 0 0.1-0.2 0.1-0.3 0.1 0.1 0.1 0.3 0.2 0.3 0 0 0.1-0.1 0.1-0.1-0.1-0.1 0-0.4-0.2-0.5 0 0 0.2-0.1 0.2-0.2-0.1 0 0.1-0.1 0-0.1 0.1 0 0.1 0.2 0.1 0.1 0.1 0 0.1-0.2 0.3-0.1-0.1 0.1-0.1 0.2 0.1 0.3 0-0.2 0.2-0.3 0.2-0.6 0.1 0.1 0.1-0.1 0.2 0q0.1 0 0.1-0.1c0.3 0.1 0.8 0.1 1.1-0.2 0.1-0.2-0.1-0.4-0.3-0.5-0.4-0.1-0.7 0.1-1.1-0.1 0 0-0.1 0.1-0.1 0.2 0-0.1 0-0.2-0.1-0.2 0 0-0.1 0.1 0 0.2-0.2-0.1-0.4 0-0.4 0.2 0-0.1 0.1-0.2 0-0.2-0.1 0-0.3 0.1-0.3 0.3 0-0.1-0.1-0.1-0.1-0.2-0.2 0.1-0.2 0.2-0.2 0.3q0-0.1 0-0.1c-0.1-0.1-0.2-0.1-0.2 0-0.1 0.4-0.6 0.4-0.7 0.7 0 0.1 0 0.1-0.1 0.2-0.1-0.1-0.2 0.1-0.3 0.1q0.1 0.1 0.1 0.1c-0.2 0.1-0.4 0.3-0.7 0.2-0.1 0-0.1 0.1-0.1 0.2q-0.1 0-0.1-0.1c0 0.1-0.3 0-0.1 0.2-0.1 0.1-0.3 0-0.3 0.1 0 0 0 0.1 0.1 0.1-0.3 0.1-0.2 0.4-0.1 0.6q0 0 0.1-0.1c0.1 0.1 0.2 0.3 0.2 0.3 0.3 0.7 0.3 1.4 0.5 2.1 0 0.1-0.1 0.1-0.1 0.1 0.3 0.2 0.1 0.5 0.1 0.8 0 0.3 0 0.5-0.1 0.8-0.1 0.3-0.1 0.5-0.1 0.8 0 0.1 0 0.3 0 0.4-0.1 0.3-0.1 0.7 0 0.9 0.1 0.2 0 0.6 0.1 0.7 0.1 0.2 0.1 0.3 0.1 0.5q0.1 0.1 0.2 0.1 0 0.1-0.1 0.1c0 0 0.1 0.1 0.1 0.1 0 0.1-0.1 0.1-0.1 0.1-0.2-0.1-0.3-0.2-0.4-0.4q-0.1 0-0.1 0.1c-0.1 0-0.1-0.1-0.2-0.1 0.1-0.1 0.1-0.3-0.1-0.4-0.1 0 0 0.2-0.2 0.2 0-0.1 0.1-0.3 0-0.4q-0.2 0-0.4 0c-0.2 0 0-0.3-0.2-0.4 0 0 0 0.2-0.1 0.2-0.2-0.1 0.1-0.4-0.2-0.4 0 0-0.1 0.1-0.1 0.2 0 0 0 0 0.1 0.1q-0.1 0-0.2-0.1 0.1-0.1 0.1-0.2c0-0.1-0.1-0.1-0.1-0.1q-0.1 0.1-0.1 0.1c0-0.1-0.1-0.1-0.2-0.1 0 0-0.1 0.1-0.2 0.1 0-0.1 0.1-0.2 0-0.3-0.1 0-0.1 0.2-0.1 0.2 0 0-0.1 0-0.1 0-0.1-0.1 0.1-0.3-0.1-0.4-0.1 0-0.1 0.2-0.2 0.3 0 0-0.2 0-0.2 0-0.2 0.2 0 0.3 0 0.5z"></path><path id="&lt;Path&gt;" class="s5" d="m616.9 29.1q0.1 0 0.1-0.1c0 0 0-0.1 0-0.1-0.3 0-0.6 0.3-0.6 0.5-0.1 0.1 0.2 0 0.2 0 0.1-0.1 0.1-0.2 0.3-0.3z"></path><path id="&lt;Path&gt;" class="s5" d="m617 29.5c0.1-0.1 0.1-0.2 0.1-0.2-0.1-0.1-0.1-0.1-0.1-0.1-0.2 0.2-0.3 0.3-0.4 0.4 0 0.1 0.1 0.1 0.1 0.1 0.1-0.1 0.3-0.1 0.3-0.2z"></path><path id="&lt;Path&gt;" class="s5" d="m616.1 29.8c0.1 0 0.1-0.1 0.2-0.2-0.1-0.1-0.5 0-0.5 0.1 0.1 0.2 0.2 0.1 0.3 0.1z"></path><path id="&lt;Path&gt;" class="s5" d="m617.1 30.1q0-0.1 0-0.1c0-0.1 0-0.1-0.1-0.1-0.1 0.1-0.2 0.1-0.2 0.2-0.1 0.1 0 0.1 0 0.1q0.2 0.1 0.3-0.1z"></path><path id="&lt;Path&gt;" class="s5" d="m624.3 33.7c0.4 0.1 0.9-0.2 1.2-0.6 0-0.1 0-0.2 0-0.4q0 0-0.1-0.1c-0.1 0-0.2 0.1-0.1 0.1 0 0.1 0.1 0.2 0.1 0.4-0.1 0-0.1 0-0.2 0-0.1-0.1 0.1-0.4-0.2-0.5 0 0-0.1 0 0 0.1 0 0.1 0.2 0.5 0 0.5-0.1 0-0.2 0.2-0.2 0.2-0.1-0.1 0-0.2-0.1-0.3 0-0.1-0.1 0-0.1 0 0 0.1 0 0.1 0 0.2 0 0.1-0.1 0.1-0.1 0.1 0-0.2 0-0.3-0.1-0.4-0.2 0.1 0.1 0.3-0.1 0.5 0 0 0-0.1-0.1-0.1 0.1 0 0.1-0.2 0-0.2-0.1 0 0 0.2-0.2 0.2-0.1 0-0.1-0.3-0.2-0.2-0.1 0.1 0 0.3 0 0.4 0 0.1 0.3 0.1 0.5 0.1z"></path><path id="&lt;Path&gt;" class="s5" d="m625.2 32.1c0-0.1 0-0.1 0-0.1-0.1-0.2-0.2 0-0.3 0.1 0.1 0 0.2 0.2 0.3 0.3 0.1-0.1 0.1-0.2 0-0.3z"></path><path id="&lt;Path&gt;" class="s4" d="m623.2 22.7c0 0.2-0.4 0.1-0.3 0.3-0.2-0.1-0.3-0.3-0.4-0.5q0 0-0.1 0c0.1 0 0.1-0.1 0.2-0.1 0 0 0.1 0 0.2 0.1 0-0.1 0.2 0 0.3 0 0.1-0.1-0.1-0.2 0-0.3 0 0 0.1 0 0.1 0q-0.1 0.3 0 0.5z"></path><path id="&lt;Path&gt;" class="s4" d="m623.4 31.2c0 0.1 0.1 0.2 0 0.3 0-0.1-0.2-0.2-0.2-0.3 0-0.1 0-0.2 0-0.3 0-0.2 0.1 0 0.2 0-0.1 0.1 0 0.2 0 0.3z"></path><path id="&lt;Path&gt;" class="s4" d="m623.5 31q0-0.1 0-0.2c0.1 0.1 0.2 0.4 0.1 0.5-0.1 0.1-0.1-0.2-0.1-0.3z"></path><path id="&lt;Path&gt;" class="s4" d="m622.9 31.4q0-0.1 0-0.2 0 0 0-0.1c0.2 0.1 0.1 0.3 0.2 0.3-0.1 0.1-0.1 0-0.2 0z"></path><path id="&lt;Path&gt;" class="s4" d="m622.5 32.9c0.1 0.1 0.1 0.1 0.1 0.2q0-0.1-0.1-0.1c-0.1-0.1-0.1 0.1-0.2 0q0-0.2 0-0.3c0 0 0.1 0.1 0.2 0.2z"></path><path id="&lt;Path&gt;" class="s4" d="m623.1 32.5q-0.1 0 0 0c0.1 0 0.1 0.1 0.1 0.2 0 0.1-0.1 0.1-0.1 0.1-0.1-0.1 0-0.2 0-0.3z"></path><path id="&lt;Path&gt;" class="s4" d="m623.7 32.8c0-0.1-0.1-0.2 0-0.4 0 0.2 0.1 0.3 0.1 0.4 0 0-0.1 0-0.1 0z"></path><path id="&lt;Path&gt;" class="s4" d="m624.1 32.6c0 0.1-0.1 0-0.2 0.1 0.2-0.1-0.1-0.3 0.1-0.3 0.1 0 0.1 0.1 0.1 0.2z"></path><path id="&lt;Path&gt;" class="s4" d="m624.3 32.4q-0.1-0.1 0-0.2c0.1 0.1 0.1 0.2 0.1 0.3 0 0-0.1 0.1-0.1 0.1 0-0.1 0-0.2 0-0.2z"></path><path id="&lt;Path&gt;" class="s4" d="m623.4 33.2c0 0.1 0.1 0.1 0.1 0.2 0 0-0.1 0-0.1 0-0.1-0.2 0-0.3 0-0.4 0.1 0.1 0 0.2 0 0.2z"></path><path id="&lt;Path&gt;" class="s4" d="m622.1 32.9c0 0.1 0 0.1 0 0.1-0.1-0.1 0-0.4-0.3-0.4 0-0.1 0.1-0.1 0.2-0.1 0 0.1 0 0.1 0 0.2 0 0 0.1 0 0.1 0q0 0.1 0 0.2z"></path></g><g id="&lt;Group&gt;"><path id="&lt;Compound Path&gt;" fill-rule="evenodd" class="s1" d="m466.7 199h-3.8v14.8h-5v-36.4h9.7c7.7 0 12.3 3.7 12.3 10.5 0 7.4-5.2 11.1-13.2 11.1zm0.6-17.2h-4.4v12.9h4.1c5 0 7.9-2.1 7.9-6.6 0-4.2-2.6-6.3-7.6-6.3z"></path><path id="&lt;Compound Path&gt;" fill-rule="evenodd" class="s1" d="m499.7 213.8l-0.5-3.4c-2 2.1-4.7 3.9-8.9 3.9-4.5 0-7.3-2.7-7.3-7 0-6.3 5.3-8.7 15.8-9.8v-1.1c0-3.2-1.9-4.3-4.8-4.3-3 0-5.9 1-8.7 2.2l-0.6-4.1c3-1.2 5.9-2.1 9.8-2.1 6.1 0 9 2.5 9 8.1v17.6zm-0.9-12.8c-9.2 0.9-11.2 3.5-11.2 6.1 0 2 1.4 3.3 3.8 3.3 2.7 0 5.3-1.3 7.4-3.5z"></path><path id="&lt;Compound Path&gt;" class="s1" d="m510.2 213.8v-37.4l4.7-0.7v38.1z"></path><path id="&lt;Compound Path&gt;" fill-rule="evenodd" class="s1" d="m532.3 214.3c-6.5 0-11.6-3.9-11.6-13.1 0-8.1 4.7-13.1 11-13.1 7.4 0 10.8 5.7 10.8 12.6v1h-17.1c0.1 5.9 2.9 8.6 7.3 8.6 3.6 0 6.3-1.4 9-3.6l0.7 4.3c-2.7 2.1-5.9 3.3-10.1 3.3zm-6.7-16.1h12.1c-0.6-4.1-2.4-6.4-6-6.4-2.9 0-5.4 2.1-6.1 6.4z"></path><path id="&lt;Compound Path&gt;" class="s1" d="m552.6 198.9v14.9h-4.7v-25.2h3.8l0.8 5.2c1.7-2.9 4.6-5.5 8.8-5.7l0.7 4.5c-4.2 0.2-7.7 3-9.4 6.3z"></path><path id="&lt;Compound Path&gt;" class="s1" d="m597.3 213.8v-17.1c0-2.6-0.9-4.4-3.7-4.4-2.4 0-4.8 1.7-7.1 4.1v17.4h-4.7v-17.1c0-2.6-0.9-4.4-3.7-4.4-2.5 0-4.8 1.7-7.1 4.1v17.4h-4.7v-25.2h3.7l0.6 3.7c2.4-2.2 5.2-4.2 8.8-4.2 3.7 0 5.7 1.6 6.6 4.2 2.3-2.2 5.4-4.2 8.9-4.2 4.8 0 7.1 2.9 7.1 7.4v18.3z"></path><path id="&lt;Compound Path&gt;" fill-rule="evenodd" class="s1" d="m618.9 214.3c-6.7 0-11.5-4.8-11.5-13 0-8.3 4.8-13.2 11.5-13.2 6.8 0 11.8 4.9 11.8 13.2 0 8.2-5 13-11.8 13zm0-22.3c-4.5 0-6.8 4-6.8 9.3 0 5.1 2.4 9.1 6.8 9.1 4.7 0 7-3.9 7-9.1 0-5.2-2.4-9.3-7-9.3z"></path></g><g id="&lt;Group&gt;"><path id="&lt;Compound Path&gt;" fill-rule="evenodd" class="s6" d="m117.3 62.6q1.9 0 4.4 0 2.5 0 5.6-0.1 3 0 6.1 0 7.1 0 15.8-0.2 15.6-0.1 23.5 6.6 7.9 6.8 7.9 18.3-0.2 8.2-4.6 14.6-2 2.7-4.9 5.3-3 2.7-7.5 4.8-4.4 2-10.5 3.3-6 1.2-14 1.2h-5.7v21.8q0 3.1 0.4 5.3 0.4 2.2 1.4 3.6 1.1 1.3 3 2.1 1.9 0.7 5.1 0.8v3.9h-36.8v-3.9q3.1-0.1 5.1-0.8 2-0.8 3.1-2.2 1-1.4 1.4-3.7 0.4-2.2 0.4-5.6v-19.1l0.1 0.4v-41.1q0-6.3-2.2-8.6-2.3-2.4-8.6-2.4h-5.5q-4.1 0.2-6.3 1.3-2.2 1.1-3.2 3.7-0.8 1.9-1 5.8-0.2 3.9-0.3 9.7 0 5.8 0 13.6 0 7.8-0.4 17.5-0.8 19.2-10.2 28.3-9.3 9.1-28.5 9.1-19.2 0-29.7-9.7-10.5-9.6-10.5-28.7v-38.5q0-3.5-0.2-5.7-0.2-2.3-1.1-3.7-1-1.3-3-2-1.9-0.7-5.3-1.1v-3.9h37.4v3.9q-3.4 0.2-5.3 1-1.9 0.8-3 2.3-1 1.6-1.3 4-0.3 2.5-0.3 6v39q0 14.9 5.6 22.6 5.6 7.7 18 7.7 6.7 0 12.4-2.1 5.6-2.2 9.6-6.4 2.7-2.9 4.2-6.4 1.5-3.5 2.2-7.7 0.7-4.3 0.9-9.4 0.2-5.1 0.2-11.2 0-15.8-0.2-24.1-0.2-8.3-1.6-11.1-1.2-2.2-3.4-3.1-2.3-0.9-6.2-1.1v-3.9c0.5 0 46.3 0 47.5 0zm16.1 47.3q0.7 0 1.4 0.1 0.7 0 1.3 0 6.6 0 11.7-1.9 5-1.9 8.4-5.4 3.5-3.4 5.2-8 1.8-4.6 1.8-9.9 0-8.4-4.9-13-5-4.5-14.3-4.5-5.8 0-8.2 2-2.4 2-2.4 6.6zm43.2 44v-3.9q2.5-0.3 4.5-0.7 2-0.3 3.4-1.1 1.4-0.8 2.3-2.2 0.9-1.3 1.2-3.5l7.2-65.7q0-2.8-0.4-4.8-0.3-2-1.3-3.2-1-1.2-2.9-1.7-1.8-0.5-4.7-0.6v-3.9h25.2l27.8 67.7 29.2-67.7h28v3.9q-3 0.1-4.8 0.9-1.8 0.8-2.9 2.4-1 1.6-1.4 4.2-0.4 2.6-0.4 6.2 0 30.7 0.9 46.7 0.9 16 1.1 16.6 0.6 3.3 2.7 4.6 2.1 1.2 6.7 1.9v3.9h-37.4v-3.9q3.3-0.1 5.2-0.9 2-0.8 3-2.4 1-1.6 1.4-4.3 0.4-2.6 0.4-6.5 0-8.7-0.1-16 0-7.4-0.1-14.2-0.1-6.8-0.2-13.2-0.2-6.5-0.4-13.1l-31.5 74.5h-6.1l-30-68.7-5.6 53.4q-0.2 2.9-0.1 4.8 0 1.9 0.8 3.3 0.8 1.4 2.5 2.1 1.8 0.8 4.9 1.2v3.9zm178.5-6.9q8.9 0 16.4-3.1 7.5-3.1 14.5-11.1l5.8 9q-9.4 7.3-19.6 10.7-10.1 3.4-22 3.4-11.5 0-20.7-3.3-9.3-3.4-15.8-9.5-6.4-6-9.9-14.6-3.5-8.5-3.5-19 0-11.1 3.7-20.1 3.8-9 10.7-15.4 6.9-6.4 16.8-9.8 9.9-3.4 22.2-3.4 18.4 0 36.2 7v19.4h-3.8q-2.5-9.6-11.3-14-8.8-4.4-21.5-4.4-7.4 0-13.5 2.1-6.1 2.2-10.7 6.6-4.5 4.4-7 11.1-2.5 6.7-2.5 15.9 0 10.6 2.6 18.5 2.7 8 7.4 13.4 4.7 5.3 11.2 8 6.6 2.6 14.3 2.6z"></path></g><g id="&lt;Group&gt;"><path id="&lt;Compound Path&gt;" class="s7" d="m457.9 64.9h24.1v86.9h-24.1z"></path><path id="&lt;Compound Path&gt;" class="s7" d="m487.5 138.9l13.4-16c8.7 6.8 18.2 10.4 28.2 10.4 6.6 0 10.1-2.2 10.1-5.9v-0.3c0-3.7-2.9-5.6-14.8-8.4-18.5-4.2-32.8-9.4-32.8-27.2v-0.3c0-16.1 12.8-27.8 33.7-27.8 14.8 0 26.3 4 35.7 11.6l-12 17c-8-5.7-16.6-8.6-24.3-8.6-5.9 0-8.7 2.4-8.7 5.6v0.3c0 3.9 3 5.7 15.1 8.4 19.9 4.3 32.3 10.8 32.3 27.1v0.2c0 17.8-14 28.3-35.1 28.3-15.4 0-30-4.8-40.8-14.4z"></path><path id="&lt;Compound Path&gt;" class="s7" d="m573.8 64.9h25.5l20.7 33.7 20.7-33.7h25.5v86.9h-24v-49.9l-22.2 34h-0.5l-22.1-33.9v49.8h-23.6z"></path><path id="&lt;Compound Path&gt;" class="s7" d="m680.3 64.9h69.9v20.4h-46v13.3h41.7v19h-41.7v13.7h46.6v20.5h-70.5z"></path><path id="&lt;Compound Path&gt;" class="s7" d="m783.2 86h-25.9v-21.1h76.1v21.1h-26.1v65.8h-24.1z"></path><path id="&lt;Compound Path&gt;" class="s7" d="m863.9 86h-25.9v-21.1h76.1v21.1h-26.1v65.8h-24.1z"></path></g><path id="&lt;Path&gt;" class="s6" d="m427.5 153.2h-3.2v-89.8h3.2z"></path><g id="&lt;Group&gt;"><path id="&lt;Compound Path&gt;" class="s7" d="m458 17.1h7.8v28.1h-7.8z"></path><path id="&lt;Compound Path&gt;" fill-rule="evenodd" class="s7" d="m470.5 17.1h13.3c4.3 0 7.3 1.1 9.2 3 1.6 1.7 2.5 3.8 2.5 6.6 0 4.4-2.3 7.2-5.8 8.7l6.7 9.8h-9l-5.6-8.5h-3.5v8.5h-7.8zm13 13.5c2.6 0 4.2-1.2 4.2-3.3v-0.1c0-2.2-1.7-3.4-4.3-3.4h-5.1v6.8z"></path><path id="&lt;Compound Path&gt;" class="s7" d="m498.1 31.2c0-8.2 6.2-14.7 14.8-14.7 5.7 0 9.4 2.4 11.9 5.9l-5.9 4.5c-1.6-2-3.4-3.3-6.1-3.3-3.9 0-6.7 3.4-6.7 7.5v0.1c0 4.2 2.8 7.5 6.7 7.5 2.9 0 4.7-1.4 6.3-3.4l5.9 4.1c-2.6 3.7-6.2 6.4-12.4 6.4-8.1 0-14.5-6.2-14.5-14.6z"></path><path id="&lt;Compound Path&gt;" class="s7" d="m526.3 31.2c0-8.2 6.2-14.7 14.7-14.7 5.8 0 9.5 2.4 12 5.9l-5.9 4.5c-1.6-2-3.4-3.3-6.1-3.3-4 0-6.7 3.4-6.7 7.5v0.1c0 4.2 2.7 7.5 6.7 7.5 2.9 0 4.6-1.4 6.3-3.4l5.9 4.1c-2.7 3.7-6.2 6.4-12.4 6.4-8.1 0-14.5-6.2-14.5-14.6z"></path><path id="&lt;Compound Path&gt;" class="s7" d="m554 41.1l4.4-5.2c2.8 2.2 5.8 3.3 9.1 3.3 2.1 0 3.2-0.7 3.2-1.9v-0.1c0-1.2-0.9-1.8-4.7-2.7-6-1.4-10.6-3.1-10.6-8.8v-0.1c0-5.2 4.1-9 10.8-9 4.8 0 8.6 1.3 11.6 3.8l-3.9 5.5c-2.5-1.9-5.4-2.8-7.9-2.8-1.8 0-2.8 0.7-2.8 1.8v0.1c0 1.3 1 1.8 4.9 2.7 6.5 1.4 10.5 3.5 10.5 8.8 0 5.8-4.6 9.2-11.4 9.2-5 0-9.7-1.6-13.2-4.6z"></path></g></g></svg> 