<?xml version="1.0" encoding="utf-8"?>
<!-- Generator: Adobe Illustrator 15.0.0, SVG Export Plug-In . SVG Version: 6.00 Build 0)  -->
<!DOCTYPE svg PUBLIC "-//W3C//DTD SVG 1.1//EN" "http://www.w3.org/Graphics/SVG/1.1/DTD/svg11.dtd">
<svg version="1.1" id="Livello_1" xmlns="http://www.w3.org/2000/svg" xmlns:xlink="http://www.w3.org/1999/xlink" x="0px" y="0px"
	 width="530px" height="445px" viewBox="0 0 530 445" enable-background="new 0 0 530 445" xml:space="preserve">
<g>
	<rect x="269.9" y="89.23" fill="#111211" width="192.19" height="11.83"/>
	<path fill="#282423" d="M201.2,275.89c22.79-14.36,37.04-39.61,37.04-66.98c0-43.64-35.51-79.15-79.15-79.15
		c-43.64,0-79.15,35.51-79.15,79.15v16.86H65.07h-0.78H27.83v-16.86c0-37.67,30.24-68.38,67.7-69.2c3.69-3.4,7.66-6.49,11.86-9.27
		c-3.4-0.44-6.84-0.68-10.32-0.68c-43.64,0-79.15,35.51-79.15,79.15v26.76h46.37H84.9h4.95v-4.95v-4.96v-16.86
		c0-38.18,31.06-69.24,69.24-69.24c38.18,0,69.24,31.06,69.24,69.24c0,27.11-15.97,51.88-40.7,63.08v9.21h0.45
		c31.13,10.55,52.04,39.72,52.04,72.59c0,42.27-34.39,76.67-76.66,76.67S86.8,396.07,86.8,353.8v-20.57v-4.96v-4.96H58.4H0.74v30.48
		c0,47.74,38.84,86.57,86.57,86.57c6.74,0,13.34-0.79,19.78-2.29c-3.71-2.49-7.24-5.23-10.59-8.18c-3.03,0.36-6.09,0.56-9.19,0.56
		c-42.27,0-76.66-34.4-76.66-76.67v-20.57h51.38H76.9v20.57c0,47.74,38.83,86.57,86.57,86.57c47.73,0,86.57-38.83,86.57-86.57
		C250.04,320.3,230.79,290.2,201.2,275.89"/>
	<path fill="#282423" d="M120.95,253.73H116v61h4.96c27.39,0,49.67,20.41,49.67,45.5c0,22.55-18.01,41.32-41.56,44.87
		c4.13,2.78,8.6,5.07,13.35,6.8c22.28-8.04,38.11-28.16,38.11-51.67c0-29-24.08-52.87-54.62-55.22v-41.56
		c30.54-2.35,54.62-26.22,54.62-55.22c0-23.2-15.42-43.11-37.23-51.35c-4.98,1.51-9.65,3.73-13.92,6.52
		c23.39,3.68,41.24,22.38,41.24,44.82C170.62,233.32,148.34,253.73,120.95,253.73"/>
	
		<line fill="none" stroke="#000000" stroke-width="5.8499" stroke-miterlimit="10" x1="273.37" y1="129.09" x2="273.37" y2="439.7"/>
	<path fill="none" stroke="#000000" stroke-width="5.8499" stroke-miterlimit="10" d="M282.18,439.7
		c7.8,0,14.12-147.52,14.12-155.31c0-7.8-6.32-155.3-14.12-155.3"/>
	<path fill="none" stroke="#000000" stroke-width="5.8499" stroke-miterlimit="10" d="M291,439.7c15.59,0,28.24-139.71,28.24-155.31
		s-12.65-155.3-28.24-155.3"/>
	<path fill="none" stroke="#000000" stroke-width="5.8499" stroke-miterlimit="10" d="M299.8,439.7
		c23.4,0,42.36-131.92,42.36-155.31s-18.96-155.3-42.36-155.3"/>
	<path fill="none" stroke="#000000" stroke-width="5.8499" stroke-miterlimit="10" d="M308.62,439.7
		c31.19,0,56.48-124.12,56.48-155.31c0-31.19-25.29-155.3-56.48-155.3"/>
	<path fill="none" stroke="#000000" stroke-width="5.8499" stroke-miterlimit="10" d="M317.43,439.7
		c38.99,0,70.6-116.33,70.6-155.31c0-38.99-31.61-155.3-70.6-155.3"/>
	<path fill="none" stroke="#000000" stroke-width="5.8499" stroke-miterlimit="10" d="M326.24,439.7
		c46.79,0,84.71-108.53,84.71-155.31s-37.92-155.3-84.71-155.3"/>
	<path fill="none" stroke="#000000" stroke-width="5.8499" stroke-miterlimit="10" d="M335.05,439.7
		c54.58,0,98.83-100.73,98.83-155.31s-44.25-155.3-98.83-155.3"/>
	<path fill="none" stroke="#000000" stroke-width="5.8499" stroke-miterlimit="10" d="M343.86,439.7
		c62.38,0,112.95-92.93,112.95-155.31c0-62.38-50.57-155.3-112.95-155.3"/>
	<path fill="none" stroke="#000000" stroke-width="5.8499" stroke-miterlimit="10" d="M352.67,439.7
		c70.18,0,127.07-85.13,127.07-155.31s-56.89-155.3-127.07-155.3"/>
	<path fill="none" stroke="#000000" stroke-width="5.8499" stroke-miterlimit="10" d="M361.49,439.7
		c77.97,0,141.19-77.33,141.19-155.31c0-77.98-63.22-155.3-141.19-155.3"/>
	<path fill="none" stroke="#000000" stroke-width="5.8499" stroke-miterlimit="10" d="M370.29,439.7
		c85.78,0,155.3-69.54,155.3-155.31c0-85.77-69.53-155.3-155.3-155.3"/>
	<path fill="none" stroke="#000000" stroke-width="5.8499" stroke-miterlimit="10" d="M370.29,439.7
		c85.78,0,155.3-69.54,155.3-155.31c0-85.77-69.53-155.3-155.3-155.3h-96.92V439.7H370.29z"/>
	<path fill="#111211" d="M26.38,3.16c5.36,0,8.04,0.94,9.37,1.41c4.02,1.4,5.8,3.03,6.69,3.84c2.68,2.44,3.57,4.69,4.02,5.81
		c1.34,3.36,1.34,5.98,1.34,7.29c0,4.09-0.92,6.33-1.38,7.45c-1.38,3.36-3.16,5-4.06,5.81c-2.67,2.44-5.35,3.33-6.68,3.76
		c-4.02,1.32-7.47,1.32-9.2,1.32h-7.68v22.59H6.96V3.16H26.38z M18.79,29.6h4.15c4.15,0,5.85-0.42,6.7-0.64
		c2.54-0.64,3.49-1.39,3.97-1.76c1.42-1.12,1.74-2.11,1.9-2.6c0.48-1.48,0.48-2.55,0.48-3.09c0-1.76-0.35-2.75-0.52-3.24
		c-0.51-1.48-1.46-2.2-1.94-2.56c-1.43-1.08-3.12-1.48-3.97-1.68c-2.55-0.6-5.2-0.6-6.52-0.6h-4.23V29.6z"/>
	<path fill="#111211" d="M84.3,3.16c4.75,0,7.31,0.96,8.59,1.45c3.84,1.44,5.69,3.12,6.61,3.96c2.76,2.53,3.77,4.77,4.27,5.89
		c1.51,3.36,1.51,5.93,1.51,7.21c0,2.08-0.46,4.01-0.69,4.97c-0.7,2.88-1.93,4.75-2.55,5.69c-1.85,2.8-4.04,4.33-5.13,5.09
		c-3.28,2.28-6.68,2.87-8.38,3.16l17.35,21.87H91.56L74.63,39.77h-0.18v22.67H62.62V3.16H84.3z M82.32,31.52
		c5.01,0,7.05-1.58,8.07-2.37c3.07-2.36,3.07-5.3,3.07-6.77c0-2.16-0.57-3.29-0.86-3.85c-0.87-1.68-1.88-2.43-2.38-2.8
		c-1.51-1.12-2.86-1.52-3.54-1.72c-2.03-0.6-3.59-0.6-4.36-0.6h-7.86v18.1H82.32z"/>
	<rect x="122.51" y="3.16" fill="#111211" width="11.83" height="59.28"/>
	<polygon fill="#111211" points="168.7,3.16 195.13,46.26 195.3,46.26 195.3,3.16 207.13,3.16 207.13,62.44 193.91,62.44 
		167.23,19.35 167.06,19.35 167.06,62.44 155.23,62.44 155.23,3.16 	"/>
	<polygon fill="#111211" points="257.12,3.16 257.12,13.42 245.21,13.42 245.21,62.44 233.38,62.44 233.38,13.42 221.55,13.42 
		221.55,3.16 	"/>
	<polygon fill="#111211" points="287.51,3.16 304.52,48.02 304.69,48.02 321.53,3.16 337.94,3.16 337.94,62.44 326.11,62.44 
		326.11,17.99 325.85,17.99 309.53,62.44 299.51,62.44 283.11,17.99 282.93,17.99 282.93,62.44 271.1,62.44 271.1,3.16 	"/>
	<polygon fill="#111211" points="392.48,3.16 392.48,13.42 369.95,13.42 369.95,27.92 391.54,27.92 391.54,38.17 369.95,38.17 
		369.95,52.19 392.48,52.19 392.48,62.44 358.12,62.44 358.12,3.16 	"/>
	<path fill="#111211" d="M427.25,3.16c4.06,0,6.71,0.3,8.04,0.45c3.97,0.44,6.36,1.13,7.56,1.48c3.58,1.04,5.63,2.16,6.65,2.72
		c3.06,1.68,4.62,3.34,5.39,4.16c2.77,2.89,3.89,4.94,4.44,5.97c1.69,3.08,2.26,4.93,2.55,5.84c0.87,2.77,1.04,4.23,1.13,4.97
		c0.25,2.2,0.25,3.06,0.25,3.49c0,6.81-1.52,10.33-2.29,12.09c-2.29,5.29-4.76,7.8-6,9.05c-2.33,2.32-4.11,3.47-5.01,4.05
		c-2.68,1.72-4.89,2.47-6,2.84c-3.32,1.12-6.06,1.47-7.42,1.64c-4.1,0.52-7.5,0.52-9.2,0.52h-15.37V3.16H427.25z M423.8,52.19h3.79
		c6.39,0,9.45-1.01,10.97-1.52c4.58-1.52,6.48-3.39,7.43-4.32c1.55-1.52,2.24-2.67,2.59-3.25c1.04-1.72,1.47-2.89,1.68-3.48
		c0.64-1.76,0.82-2.91,0.9-3.48c0.26-1.72,0.26-2.68,0.26-3.17c0-3.68-0.94-6-1.42-7.17c-1.42-3.48-3.26-5.35-4.19-6.29
		c-2.93-2.96-5.96-4-7.46-4.53c-4.54-1.56-8.91-1.56-11.11-1.56h-3.44V52.19z"/>
</g>
</svg>
